<?xml version="1.0" encoding="UTF-8"?>
<svg xmlns="http://www.w3.org/2000/svg" xmlns:xlink="http://www.w3.org/1999/xlink" width="128px" height="128px" viewBox="0 0 128 128" version="1.1">
<g id="surface1">
<path style=" stroke:none;fill-rule:nonzero;fill:rgb(21.176471%,21.176471%,21.176471%);fill-opacity:1;" d="M 78.03125 96 C 76.921875 96.003906 76.019531 95.109375 76.015625 94 C 76.011719 93.472656 76.21875 92.960938 76.589844 92.585938 C 76.964844 92.210938 77.472656 92 78 92 L 78.03125 92 C 83.988281 91.980469 89.035156 87.609375 89.90625 81.714844 C 90.066406 80.621094 91.078125 79.863281 92.171875 80.019531 C 93.265625 80.175781 94.023438 81.191406 93.867188 82.285156 C 92.703125 90.140625 85.972656 95.972656 78.03125 96 Z M 78.03125 96 "/>
<path style=" stroke:none;fill-rule:nonzero;fill:rgb(21.176471%,21.176471%,21.176471%);fill-opacity:1;" d="M 89.335938 47.734375 C 88.695312 47.734375 88.09375 47.429688 87.71875 46.914062 C 85.453125 43.832031 81.855469 42.007812 78.03125 42 C 76.921875 42.003906 76.019531 41.109375 76.015625 40 C 76.011719 39.472656 76.21875 38.960938 76.589844 38.585938 C 76.964844 38.210938 77.472656 38 78 38 C 83.109375 38.003906 87.914062 40.433594 90.945312 44.550781 C 91.386719 45.15625 91.453125 45.960938 91.117188 46.632812 C 90.78125 47.304688 90.09375 47.730469 89.34375 47.734375 Z M 89.335938 47.734375 "/>
<path style=" stroke:none;fill-rule:nonzero;fill:rgb(21.176471%,21.176471%,21.176471%);fill-opacity:1;" d="M 78.03125 86 C 76.921875 86.003906 76.019531 85.109375 76.015625 84 C 76.011719 83.472656 76.21875 82.960938 76.589844 82.585938 C 76.964844 82.210938 77.472656 82 78 82 L 78.03125 82 C 78.691406 82 79.308594 81.671875 79.679688 81.128906 C 80.308594 80.214844 81.554688 79.988281 82.464844 80.613281 C 83.378906 81.242188 83.605469 82.488281 82.980469 83.398438 C 81.859375 85.03125 80.007812 86.003906 78.03125 86 Z M 78.03125 86 "/>
<path style=" stroke:none;fill-rule:nonzero;fill:rgb(21.176471%,21.176471%,21.176471%);fill-opacity:1;" d="M 81.332031 53.738281 C 80.671875 53.742188 80.054688 53.417969 79.679688 52.871094 C 79.308594 52.328125 78.691406 52 78.03125 52 C 76.921875 52.003906 76.019531 51.109375 76.015625 50 C 76.011719 49.472656 76.21875 48.960938 76.589844 48.585938 C 76.964844 48.210938 77.472656 48 78 48 C 79.988281 47.988281 81.851562 48.964844 82.980469 50.601562 C 83.601562 51.511719 83.371094 52.753906 82.460938 53.378906 C 82.128906 53.609375 81.734375 53.738281 81.332031 53.738281 Z M 81.332031 53.738281 "/>
<path style=" stroke:none;fill-rule:nonzero;fill:rgb(21.176471%,21.176471%,21.176471%);fill-opacity:1;" d="M 91.03125 64 L 81.03125 64 C 77.164062 64 74.03125 60.867188 74.03125 57 C 74.03125 53.132812 77.164062 50 81.03125 50 L 87.328125 50 C 88.433594 50 89.328125 50.894531 89.328125 52 C 89.328125 53.105469 88.433594 54 87.328125 54 L 81.03125 54 C 79.375 54 78.03125 55.34375 78.03125 57 C 78.03125 58.65625 79.375 60 81.03125 60 L 91.03125 60 C 92.6875 60 94.03125 58.65625 94.03125 57 C 94.03125 55.894531 94.925781 55 96.03125 55 C 97.132812 55 98.03125 55.894531 98.03125 57 C 98.03125 60.867188 94.894531 64 91.03125 64 Z M 91.03125 64 "/>
<path style=" stroke:none;fill-rule:nonzero;fill:rgb(21.176471%,21.176471%,21.176471%);fill-opacity:1;" d="M 91.03125 74 L 81.03125 74 C 77.164062 74 74.03125 70.867188 74.03125 67 C 74.03125 63.132812 77.164062 60 81.03125 60 L 91.03125 60 C 94.894531 60 98.03125 63.132812 98.03125 67 C 98.03125 70.867188 94.894531 74 91.03125 74 Z M 81.03125 64 C 79.375 64 78.03125 65.34375 78.03125 67 C 78.03125 68.65625 79.375 70 81.03125 70 L 91.03125 70 C 92.6875 70 94.03125 68.65625 94.03125 67 C 94.03125 65.34375 92.6875 64 91.03125 64 Z M 81.03125 64 "/>
<path style=" stroke:none;fill-rule:nonzero;fill:rgb(21.176471%,21.176471%,21.176471%);fill-opacity:1;" d="M 91.03125 84 L 81.03125 84 C 77.164062 84 74.03125 80.867188 74.03125 77 C 74.03125 73.132812 77.164062 70 81.03125 70 L 91.03125 70 C 94.894531 70 98.03125 73.132812 98.03125 77 C 98.03125 80.867188 94.894531 84 91.03125 84 Z M 81.03125 74 C 79.375 74 78.03125 75.34375 78.03125 77 C 78.03125 78.65625 79.375 80 81.03125 80 L 91.03125 80 C 92.6875 80 94.03125 78.65625 94.03125 77 C 94.03125 75.34375 92.6875 74 91.03125 74 Z M 81.03125 74 "/>
<path style=" stroke:none;fill-rule:nonzero;fill:rgb(21.176471%,21.176471%,21.176471%);fill-opacity:1;" d="M 109.328125 88 L 91.328125 88 C 90.226562 88 89.328125 87.105469 89.328125 86 C 89.328125 84.894531 90.226562 84 91.328125 84 L 109.328125 84 C 111.539062 84 113.328125 82.210938 113.328125 80 C 113.328125 78.894531 114.226562 78 115.328125 78 C 116.433594 78 117.328125 78.894531 117.328125 80 C 117.328125 84.417969 113.75 88 109.328125 88 Z M 109.328125 88 "/>
<path style=" stroke:none;fill-rule:nonzero;fill:rgb(21.176471%,21.176471%,21.176471%);fill-opacity:1;" d="M 115.328125 58.9375 C 114.226562 58.9375 113.328125 58.039062 113.328125 56.9375 C 113.332031 55.699219 112.761719 54.535156 111.785156 53.78125 L 97.886719 42.980469 C 95.976562 41.976562 93.613281 42.671875 92.546875 44.546875 L 90.574219 48.027344 C 89.488281 49.949219 90.160156 52.390625 92.082031 53.480469 C 94.003906 54.570312 96.445312 53.894531 97.535156 51.972656 C 97.878906 51.335938 98.542969 50.9375 99.265625 50.925781 C 99.992188 50.914062 100.664062 51.296875 101.027344 51.925781 C 101.390625 52.550781 101.382812 53.324219 101.015625 53.949219 C 98.835938 57.792969 93.953125 59.140625 90.109375 56.960938 C 86.265625 54.78125 84.917969 49.898438 87.097656 46.054688 L 89.070312 42.574219 C 91.25 38.734375 96.128906 37.382812 99.972656 39.5625 C 100.058594 39.609375 100.136719 39.664062 100.214844 39.722656 L 114.238281 50.621094 C 116.195312 52.132812 117.339844 54.464844 117.328125 56.9375 C 117.328125 58.042969 116.433594 58.9375 115.328125 58.9375 Z M 115.328125 58.9375 "/>
<path style=" stroke:none;fill-rule:nonzero;fill:rgb(21.176471%,21.176471%,21.176471%);fill-opacity:1;" d="M 121.328125 82 L 115.328125 82 C 114.226562 82 113.328125 81.105469 113.328125 80 C 113.328125 78.894531 114.226562 78 115.328125 78 L 121.328125 78 C 122.433594 78 123.328125 78.894531 123.328125 80 C 123.328125 81.105469 122.433594 82 121.328125 82 Z M 121.328125 82 "/>
<path style=" stroke:none;fill-rule:nonzero;fill:rgb(21.176471%,21.176471%,21.176471%);fill-opacity:1;" d="M 121.328125 60 L 115.328125 60 C 114.226562 60 113.328125 59.105469 113.328125 58 C 113.328125 56.894531 114.226562 56 115.328125 56 L 121.328125 56 C 122.433594 56 123.328125 56.894531 123.328125 58 C 123.328125 59.105469 122.433594 60 121.328125 60 Z M 121.328125 60 "/>
<path style=" stroke:none;fill-rule:nonzero;fill:rgb(100%,74.117649%,29.019609%);fill-opacity:1;" d="M 74.464844 108.351562 L 72.230469 100.527344 C 72.078125 99.992188 72 99.4375 72 98.882812 L 72 46 C 72 44.894531 71.105469 44 70 44 L 62 44 L 62 46 C 62 48.210938 60.210938 50 58 50 C 55.789062 50 54 48.210938 54 46 L 54 44 L 10 44 C 8.894531 44 8 44.894531 8 46 L 8 98.878906 C 8 99.4375 7.921875 99.992188 7.769531 100.53125 L 5.601562 108.105469 C 5.101562 109.710938 5.269531 111.453125 6.0625 112.933594 C 7.121094 114.832031 9.128906 116.007812 11.300781 116 L 68.441406 116 C 70.125 116.039062 71.75 115.398438 72.957031 114.226562 C 74.492188 112.6875 75.070312 110.4375 74.464844 108.351562 Z M 26 98 C 26 100.210938 24.210938 102 22 102 C 19.789062 102 18 100.210938 18 98 L 18 62 C 18 59.789062 19.789062 58 22 58 C 24.210938 58 26 59.789062 26 62 Z M 44 98 C 44 100.210938 42.210938 102 40 102 C 37.789062 102 36 100.210938 36 98 L 36 62 C 36 59.789062 37.789062 58 40 58 C 42.210938 58 44 59.789062 44 62 Z M 62 98 C 62 100.210938 60.210938 102 58 102 C 55.789062 102 54 100.210938 54 98 L 54 62 C 54 59.789062 55.789062 58 58 58 C 60.210938 58 62 59.789062 62 62 Z M 62 98 "/>
<path style=" stroke:none;fill-rule:nonzero;fill:rgb(21.176471%,21.176471%,21.176471%);fill-opacity:1;" d="M 40 104 C 36.6875 104 34 101.3125 34 98 L 34 62 C 34 58.6875 36.6875 56 40 56 C 43.3125 56 46 58.6875 46 62 L 46 98 C 46 101.3125 43.3125 104 40 104 Z M 40 60 C 38.894531 60 38 60.894531 38 62 L 38 98 C 38 99.105469 38.894531 100 40 100 C 41.105469 100 42 99.105469 42 98 L 42 62 C 42 60.894531 41.105469 60 40 60 Z M 40 60 "/>
<path style=" stroke:none;fill-rule:nonzero;fill:rgb(21.176471%,21.176471%,21.176471%);fill-opacity:1;" d="M 58 104 C 54.6875 104 52 101.3125 52 98 L 52 62 C 52 58.6875 54.6875 56 58 56 C 61.3125 56 64 58.6875 64 62 L 64 98 C 64 101.3125 61.3125 104 58 104 Z M 58 60 C 56.894531 60 56 60.894531 56 62 L 56 98 C 56 99.105469 56.894531 100 58 100 C 59.105469 100 60 99.105469 60 98 L 60 62 C 60 60.894531 59.105469 60 58 60 Z M 58 60 "/>
<path style=" stroke:none;fill-rule:nonzero;fill:rgb(21.176471%,21.176471%,21.176471%);fill-opacity:1;" d="M 22 104 C 18.6875 104 16 101.3125 16 98 L 16 62 C 16 58.6875 18.6875 56 22 56 C 25.3125 56 28 58.6875 28 62 L 28 98 C 28 101.3125 25.3125 104 22 104 Z M 22 60 C 20.894531 60 20 60.894531 20 62 L 20 98 C 20 99.105469 20.894531 100 22 100 C 23.105469 100 24 99.105469 24 98 L 24 62 C 24 60.894531 23.105469 60 22 60 Z M 22 60 "/>
<path style=" stroke:none;fill-rule:nonzero;fill:rgb(21.176471%,21.176471%,21.176471%);fill-opacity:1;" d="M 14.875 22 C 14.597656 22 14.324219 21.941406 14.074219 21.832031 C 13.0625 21.390625 12.601562 20.210938 13.042969 19.199219 C 14.949219 14.832031 19.261719 12.003906 24.03125 12 C 25.097656 12 26.164062 12.148438 27.191406 12.445312 C 29.125 7.953125 33.269531 4.800781 38.113281 4.132812 C 42.957031 3.460938 47.800781 5.371094 50.882812 9.171875 C 52.488281 8.398438 54.246094 8 56.03125 8 C 62.652344 8.007812 68.023438 13.375 68.03125 20 C 68.03125 21.105469 67.132812 22 66.03125 22 C 64.925781 22 64.03125 21.105469 64.03125 20 C 64.035156 17.015625 62.378906 14.277344 59.730469 12.902344 C 57.082031 11.523438 53.890625 11.738281 51.449219 13.457031 C 50.996094 13.777344 50.429688 13.890625 49.886719 13.777344 C 49.347656 13.660156 48.875 13.328125 48.589844 12.855469 C 46.515625 9.390625 42.5625 7.519531 38.570312 8.105469 C 34.578125 8.695312 31.332031 11.628906 30.347656 15.542969 C 30.199219 16.125 29.796875 16.613281 29.25 16.867188 C 28.703125 17.117188 28.070312 17.113281 27.527344 16.847656 C 25.574219 15.890625 23.316406 15.769531 21.273438 16.515625 C 19.230469 17.261719 17.582031 18.808594 16.707031 20.800781 C 16.386719 21.527344 15.667969 22 14.875 22 Z M 14.875 22 "/>
<path style=" stroke:none;fill-rule:nonzero;fill:rgb(21.176471%,21.176471%,21.176471%);fill-opacity:1;" d="M 58.023438 52 C 57.691406 52 57.363281 51.972656 57.035156 51.921875 C 54.105469 51.355469 52 48.769531 52.035156 45.785156 L 52.035156 32 C 52.035156 30.894531 51.140625 30 50.035156 30 C 48.929688 30 48.035156 30.894531 48.035156 32 C 48.039062 34.199219 47.136719 36.304688 45.539062 37.816406 C 43.945312 39.332031 41.796875 40.121094 39.601562 40 C 35.261719 39.679688 31.933594 36.019531 32.027344 31.671875 C 32.023438 30.753906 31.28125 30.011719 30.367188 30.011719 L 14.03125 30.011719 C 12.925781 30.011719 12.03125 30.90625 12.03125 32.011719 L 12 38.011719 C 11.996094 39.113281 11.097656 40.007812 9.996094 40.003906 C 8.890625 40.003906 7.996094 39.105469 8 38 L 8.03125 32 C 8.035156 28.691406 10.71875 26.011719 14.03125 26.011719 L 30.371094 26.011719 C 33.492188 26.015625 36.027344 28.546875 36.03125 31.671875 C 35.96875 33.878906 37.613281 35.765625 39.8125 36 C 40.910156 36.058594 41.984375 35.664062 42.78125 34.910156 C 43.582031 34.152344 44.03125 33.101562 44.03125 32 C 44.03125 28.6875 46.714844 26 50.03125 26 C 53.34375 26 56.03125 28.6875 56.03125 32 L 56.03125 45.785156 C 55.992188 46.8125 56.679688 47.726562 57.679688 47.96875 C 58.261719 48.074219 58.859375 47.914062 59.3125 47.535156 C 59.769531 47.152344 60.03125 46.59375 60.03125 46 L 60.03125 31.660156 C 60.035156 28.535156 62.566406 26.003906 65.691406 26 L 66.03125 26 C 69.34375 26 72.03125 28.6875 72.03125 32 L 72 38 C 71.980469 39.097656 71.089844 39.984375 69.988281 40 C 68.890625 39.996094 68 39.101562 68 38 L 68.03125 32 C 68.023438 30.898438 67.128906 30.011719 66.03125 30.011719 L 65.691406 30.011719 C 64.773438 30.011719 64.03125 30.753906 64.03125 31.671875 L 64.03125 46 C 64.03125 49.3125 61.34375 52 58.03125 52 Z M 58.023438 52 "/>
</g>
</svg>
