<?xml version="1.0" encoding="UTF-8"?>
<svg xmlns="http://www.w3.org/2000/svg" xmlns:xlink="http://www.w3.org/1999/xlink" width="96px" height="96px" viewBox="0 0 96 96" version="1.1">
<g id="surface1">
<path style=" stroke:none;fill-rule:nonzero;fill:rgb(21.176471%,21.176471%,21.176471%);fill-opacity:1;" d="M 58.523438 72 C 57.691406 72 57.015625 71.332031 57.011719 70.5 C 57.007812 70.101562 57.164062 69.722656 57.445312 69.441406 C 57.722656 69.160156 58.101562 69 58.5 69 L 58.523438 69 C 62.992188 68.984375 66.777344 65.707031 67.429688 61.285156 C 67.546875 60.46875 68.308594 59.898438 69.128906 60.015625 C 69.949219 60.132812 70.519531 60.894531 70.402344 61.714844 C 69.527344 67.605469 64.480469 71.976562 58.523438 72 Z M 58.523438 72 "/>
<path style=" stroke:none;fill-rule:nonzero;fill:rgb(21.176471%,21.176471%,21.176471%);fill-opacity:1;" d="M 67 35.800781 C 66.523438 35.800781 66.070312 35.574219 65.789062 35.1875 C 64.089844 32.875 61.390625 31.507812 58.523438 31.5 C 57.691406 31.5 57.015625 30.832031 57.011719 30 C 57.007812 29.601562 57.164062 29.222656 57.445312 28.941406 C 57.722656 28.660156 58.101562 28.5 58.5 28.5 C 62.332031 28.503906 65.9375 30.328125 68.207031 33.414062 C 68.539062 33.867188 68.589844 34.472656 68.339844 34.972656 C 68.085938 35.476562 67.570312 35.796875 67.007812 35.800781 Z M 67 35.800781 "/>
<path style=" stroke:none;fill-rule:nonzero;fill:rgb(21.176471%,21.176471%,21.176471%);fill-opacity:1;" d="M 58.523438 64.5 C 57.691406 64.5 57.015625 63.832031 57.011719 63 C 57.007812 62.601562 57.164062 62.222656 57.445312 61.941406 C 57.722656 61.660156 58.101562 61.5 58.5 61.5 L 58.523438 61.5 C 59.019531 61.5 59.480469 61.253906 59.761719 60.847656 C 60.230469 60.164062 61.167969 59.988281 61.847656 60.460938 C 62.53125 60.929688 62.707031 61.867188 62.234375 62.550781 C 61.394531 63.773438 60.003906 64.5 58.523438 64.5 Z M 58.523438 64.5 "/>
<path style=" stroke:none;fill-rule:nonzero;fill:rgb(21.176471%,21.176471%,21.176471%);fill-opacity:1;" d="M 61 40.304688 C 60.503906 40.304688 60.039062 40.0625 59.761719 39.652344 C 59.480469 39.246094 59.019531 39 58.523438 39 C 57.691406 39 57.015625 38.332031 57.011719 37.5 C 57.007812 37.101562 57.164062 36.722656 57.445312 36.441406 C 57.722656 36.160156 58.101562 36 58.5 36 C 59.992188 35.992188 61.390625 36.722656 62.234375 37.949219 C 62.703125 38.632812 62.527344 39.566406 61.84375 40.035156 C 61.597656 40.207031 61.300781 40.304688 61 40.304688 Z M 61 40.304688 "/>
<path style=" stroke:none;fill-rule:nonzero;fill:rgb(21.176471%,21.176471%,21.176471%);fill-opacity:1;" d="M 68.273438 48 L 60.773438 48 C 57.871094 48 55.523438 45.648438 55.523438 42.75 C 55.523438 39.851562 57.871094 37.5 60.773438 37.5 L 65.496094 37.5 C 66.324219 37.5 66.996094 38.171875 66.996094 39 C 66.996094 39.828125 66.324219 40.5 65.496094 40.5 L 60.773438 40.5 C 59.53125 40.5 58.523438 41.507812 58.523438 42.75 C 58.523438 43.992188 59.53125 45 60.773438 45 L 68.273438 45 C 69.515625 45 70.523438 43.992188 70.523438 42.75 C 70.523438 41.921875 71.195312 41.25 72.023438 41.25 C 72.851562 41.25 73.523438 41.921875 73.523438 42.75 C 73.523438 45.648438 71.171875 48 68.273438 48 Z M 68.273438 48 "/>
<path style=" stroke:none;fill-rule:nonzero;fill:rgb(21.176471%,21.176471%,21.176471%);fill-opacity:1;" d="M 68.273438 55.5 L 60.773438 55.5 C 57.871094 55.5 55.523438 53.148438 55.523438 50.25 C 55.523438 47.351562 57.871094 45 60.773438 45 L 68.273438 45 C 71.171875 45 73.523438 47.351562 73.523438 50.25 C 73.523438 53.148438 71.171875 55.5 68.273438 55.5 Z M 60.773438 48 C 59.53125 48 58.523438 49.007812 58.523438 50.25 C 58.523438 51.492188 59.53125 52.5 60.773438 52.5 L 68.273438 52.5 C 69.515625 52.5 70.523438 51.492188 70.523438 50.25 C 70.523438 49.007812 69.515625 48 68.273438 48 Z M 60.773438 48 "/>
<path style=" stroke:none;fill-rule:nonzero;fill:rgb(21.176471%,21.176471%,21.176471%);fill-opacity:1;" d="M 68.273438 63 L 60.773438 63 C 57.871094 63 55.523438 60.648438 55.523438 57.75 C 55.523438 54.851562 57.871094 52.5 60.773438 52.5 L 68.273438 52.5 C 71.171875 52.5 73.523438 54.851562 73.523438 57.75 C 73.523438 60.648438 71.171875 63 68.273438 63 Z M 60.773438 55.5 C 59.53125 55.5 58.523438 56.507812 58.523438 57.75 C 58.523438 58.992188 59.53125 60 60.773438 60 L 68.273438 60 C 69.515625 60 70.523438 58.992188 70.523438 57.75 C 70.523438 56.507812 69.515625 55.5 68.273438 55.5 Z M 60.773438 55.5 "/>
<path style=" stroke:none;fill-rule:nonzero;fill:rgb(21.176471%,21.176471%,21.176471%);fill-opacity:1;" d="M 81.996094 66 L 68.496094 66 C 67.667969 66 66.996094 65.328125 66.996094 64.5 C 66.996094 63.671875 67.667969 63 68.496094 63 L 81.996094 63 C 83.65625 63 84.996094 61.65625 84.996094 60 C 84.996094 59.171875 85.667969 58.5 86.496094 58.5 C 87.324219 58.5 87.996094 59.171875 87.996094 60 C 87.996094 63.3125 85.3125 66 81.996094 66 Z M 81.996094 66 "/>
<path style=" stroke:none;fill-rule:nonzero;fill:rgb(21.176471%,21.176471%,21.176471%);fill-opacity:1;" d="M 86.496094 44.203125 C 85.667969 44.203125 84.996094 43.53125 84.996094 42.703125 C 85 41.777344 84.570312 40.902344 83.839844 40.335938 L 73.414062 32.234375 C 71.980469 31.484375 70.210938 32.003906 69.410156 33.410156 L 67.933594 36.019531 C 67.113281 37.460938 67.621094 39.292969 69.0625 40.109375 C 70.503906 40.929688 72.335938 40.421875 73.152344 38.980469 C 73.410156 38.503906 73.90625 38.203125 74.449219 38.195312 C 74.992188 38.1875 75.5 38.472656 75.769531 38.941406 C 76.042969 39.414062 76.039062 39.996094 75.761719 40.460938 C 74.125 43.34375 70.464844 44.355469 67.582031 42.71875 C 64.699219 41.085938 63.6875 37.421875 65.320312 34.539062 L 66.800781 31.933594 C 68.4375 29.050781 72.097656 28.039062 74.980469 29.671875 C 75.042969 29.707031 75.101562 29.75 75.160156 29.792969 L 85.679688 37.964844 C 87.148438 39.097656 88.003906 40.851562 87.996094 42.703125 C 87.996094 43.53125 87.324219 44.203125 86.496094 44.203125 Z M 86.496094 44.203125 "/>
<path style=" stroke:none;fill-rule:nonzero;fill:rgb(21.176471%,21.176471%,21.176471%);fill-opacity:1;" d="M 90.996094 61.5 L 86.496094 61.5 C 85.667969 61.5 84.996094 60.828125 84.996094 60 C 84.996094 59.171875 85.667969 58.5 86.496094 58.5 L 90.996094 58.5 C 91.824219 58.5 92.496094 59.171875 92.496094 60 C 92.496094 60.828125 91.824219 61.5 90.996094 61.5 Z M 90.996094 61.5 "/>
<path style=" stroke:none;fill-rule:nonzero;fill:rgb(21.176471%,21.176471%,21.176471%);fill-opacity:1;" d="M 90.996094 45 L 86.496094 45 C 85.667969 45 84.996094 44.328125 84.996094 43.5 C 84.996094 42.671875 85.667969 42 86.496094 42 L 90.996094 42 C 91.824219 42 92.496094 42.671875 92.496094 43.5 C 92.496094 44.328125 91.824219 45 90.996094 45 Z M 90.996094 45 "/>
<path style=" stroke:none;fill-rule:nonzero;fill:rgb(100%,74.117649%,29.019609%);fill-opacity:1;" d="M 55.847656 81.265625 L 54.171875 75.394531 C 54.058594 74.996094 54 74.578125 54 74.160156 L 54 34.5 C 54 33.671875 53.328125 33 52.5 33 L 46.5 33 L 46.5 34.5 C 46.5 36.15625 45.15625 37.5 43.5 37.5 C 41.84375 37.5 40.5 36.15625 40.5 34.5 L 40.5 33 L 7.5 33 C 6.671875 33 6 33.671875 6 34.5 L 6 74.160156 C 6 74.578125 5.941406 74.996094 5.828125 75.398438 L 4.199219 81.078125 C 3.828125 82.285156 3.953125 83.589844 4.546875 84.699219 C 5.339844 86.125 6.847656 87.007812 8.476562 87 L 51.332031 87 C 52.59375 87.027344 53.8125 86.546875 54.71875 85.667969 C 55.867188 84.515625 56.300781 82.828125 55.847656 81.265625 Z M 19.5 73.5 C 19.5 75.15625 18.15625 76.5 16.5 76.5 C 14.84375 76.5 13.5 75.15625 13.5 73.5 L 13.5 46.5 C 13.5 44.84375 14.84375 43.5 16.5 43.5 C 18.15625 43.5 19.5 44.84375 19.5 46.5 Z M 33 73.5 C 33 75.15625 31.65625 76.5 30 76.5 C 28.34375 76.5 27 75.15625 27 73.5 L 27 46.5 C 27 44.84375 28.34375 43.5 30 43.5 C 31.65625 43.5 33 44.84375 33 46.5 Z M 46.5 73.5 C 46.5 75.15625 45.15625 76.5 43.5 76.5 C 41.84375 76.5 40.5 75.15625 40.5 73.5 L 40.5 46.5 C 40.5 44.84375 41.84375 43.5 43.5 43.5 C 45.15625 43.5 46.5 44.84375 46.5 46.5 Z M 46.5 73.5 "/>
<path style=" stroke:none;fill-rule:nonzero;fill:rgb(21.176471%,21.176471%,21.176471%);fill-opacity:1;" d="M 30 78 C 27.515625 78 25.5 75.984375 25.5 73.5 L 25.5 46.5 C 25.5 44.015625 27.515625 42 30 42 C 32.484375 42 34.5 44.015625 34.5 46.5 L 34.5 73.5 C 34.5 75.984375 32.484375 78 30 78 Z M 30 45 C 29.171875 45 28.5 45.671875 28.5 46.5 L 28.5 73.5 C 28.5 74.328125 29.171875 75 30 75 C 30.828125 75 31.5 74.328125 31.5 73.5 L 31.5 46.5 C 31.5 45.671875 30.828125 45 30 45 Z M 30 45 "/>
<path style=" stroke:none;fill-rule:nonzero;fill:rgb(21.176471%,21.176471%,21.176471%);fill-opacity:1;" d="M 43.5 78 C 41.015625 78 39 75.984375 39 73.5 L 39 46.5 C 39 44.015625 41.015625 42 43.5 42 C 45.984375 42 48 44.015625 48 46.5 L 48 73.5 C 48 75.984375 45.984375 78 43.5 78 Z M 43.5 45 C 42.671875 45 42 45.671875 42 46.5 L 42 73.5 C 42 74.328125 42.671875 75 43.5 75 C 44.328125 75 45 74.328125 45 73.5 L 45 46.5 C 45 45.671875 44.328125 45 43.5 45 Z M 43.5 45 "/>
<path style=" stroke:none;fill-rule:nonzero;fill:rgb(21.176471%,21.176471%,21.176471%);fill-opacity:1;" d="M 16.5 78 C 14.015625 78 12 75.984375 12 73.5 L 12 46.5 C 12 44.015625 14.015625 42 16.5 42 C 18.984375 42 21 44.015625 21 46.5 L 21 73.5 C 21 75.984375 18.984375 78 16.5 78 Z M 16.5 45 C 15.671875 45 15 45.671875 15 46.5 L 15 73.5 C 15 74.328125 15.671875 75 16.5 75 C 17.328125 75 18 74.328125 18 73.5 L 18 46.5 C 18 45.671875 17.328125 45 16.5 45 Z M 16.5 45 "/>
<path style=" stroke:none;fill-rule:nonzero;fill:rgb(21.176471%,21.176471%,21.176471%);fill-opacity:1;" d="M 11.15625 16.5 C 10.949219 16.5 10.746094 16.457031 10.554688 16.375 C 9.796875 16.042969 9.449219 15.160156 9.78125 14.398438 C 11.210938 11.121094 14.445312 9.003906 18.023438 9 C 18.824219 9 19.621094 9.113281 20.390625 9.332031 C 21.84375 5.964844 24.953125 3.601562 28.585938 3.097656 C 32.21875 2.597656 35.851562 4.03125 38.160156 6.878906 C 39.367188 6.300781 40.6875 6 42.023438 6 C 46.992188 6.003906 51.015625 10.03125 51.023438 15 C 51.023438 15.828125 50.351562 16.5 49.523438 16.5 C 48.695312 16.5 48.023438 15.828125 48.023438 15 C 48.027344 12.761719 46.785156 10.707031 44.796875 9.675781 C 42.8125 8.644531 40.417969 8.804688 38.585938 10.09375 C 38.246094 10.332031 37.824219 10.417969 37.414062 10.332031 C 37.007812 10.246094 36.65625 9.996094 36.441406 9.640625 C 34.886719 7.042969 31.921875 5.640625 28.929688 6.082031 C 25.933594 6.523438 23.5 8.722656 22.761719 11.65625 C 22.648438 12.09375 22.347656 12.460938 21.9375 12.648438 C 21.527344 12.839844 21.050781 12.832031 20.644531 12.632812 C 19.179688 11.917969 17.488281 11.828125 15.957031 12.386719 C 14.421875 12.945312 13.1875 14.105469 12.53125 15.601562 C 12.292969 16.144531 11.75 16.5 11.15625 16.5 Z M 11.15625 16.5 "/>
<path style=" stroke:none;fill-rule:nonzero;fill:rgb(21.176471%,21.176471%,21.176471%);fill-opacity:1;" d="M 43.515625 39 C 43.269531 39 43.023438 38.980469 42.777344 38.941406 C 40.578125 38.515625 39 36.578125 39.027344 34.339844 L 39.027344 24 C 39.027344 23.171875 38.355469 22.5 37.527344 22.5 C 36.699219 22.5 36.027344 23.171875 36.027344 24 C 36.03125 25.648438 35.351562 27.226562 34.15625 28.363281 C 32.957031 29.496094 31.347656 30.089844 29.699219 30 C 26.445312 29.757812 23.949219 27.015625 24.019531 23.753906 C 24.019531 23.066406 23.460938 22.507812 22.773438 22.507812 L 10.523438 22.507812 C 9.695312 22.507812 9.023438 23.179688 9.023438 24.007812 L 9 28.507812 C 8.996094 29.335938 8.324219 30.003906 7.496094 30.003906 C 6.667969 30 5.996094 29.328125 6 28.5 L 6.023438 24 C 6.027344 21.519531 8.039062 19.507812 10.523438 19.507812 L 22.777344 19.507812 C 25.121094 19.511719 27.019531 21.410156 27.023438 23.753906 C 26.976562 25.410156 28.210938 26.824219 29.859375 27 C 30.683594 27.046875 31.488281 26.75 32.085938 26.179688 C 32.683594 25.613281 33.023438 24.824219 33.023438 24 C 33.023438 21.515625 35.039062 19.5 37.523438 19.5 C 40.007812 19.5 42.023438 21.515625 42.023438 24 L 42.023438 34.339844 C 41.992188 35.109375 42.511719 35.792969 43.257812 35.976562 C 43.695312 36.054688 44.144531 35.9375 44.484375 35.652344 C 44.824219 35.367188 45.023438 34.945312 45.023438 34.5 L 45.023438 23.746094 C 45.027344 21.402344 46.925781 19.503906 49.265625 19.5 L 49.523438 19.5 C 52.007812 19.5 54.023438 21.515625 54.023438 24 L 54 28.5 C 53.984375 29.324219 53.316406 29.988281 52.492188 30 C 51.667969 29.996094 51 29.324219 51 28.5 L 51.023438 24 C 51.019531 23.175781 50.347656 22.507812 49.523438 22.507812 L 49.265625 22.507812 C 48.582031 22.507812 48.023438 23.066406 48.023438 23.753906 L 48.023438 34.5 C 48.023438 36.984375 46.007812 39 43.523438 39 Z M 43.515625 39 "/>
</g>
</svg>
