<?xml version="1.0" encoding="UTF-8"?>
<svg xmlns="http://www.w3.org/2000/svg" xmlns:xlink="http://www.w3.org/1999/xlink" width="384px" height="384px" viewBox="0 0 384 384" version="1.1">
<g id="surface1">
<path style=" stroke:none;fill-rule:nonzero;fill:rgb(21.176471%,21.176471%,21.176471%);fill-opacity:1;" d="M 234.089844 288 C 230.765625 288.007812 228.0625 285.324219 228.042969 282 C 228.03125 280.414062 228.65625 278.886719 229.773438 277.761719 C 230.890625 276.636719 232.414062 276 234 276 L 234.089844 276 C 251.960938 275.9375 267.105469 262.828125 269.722656 245.148438 C 270.195312 241.867188 273.234375 239.589844 276.515625 240.058594 C 279.796875 240.53125 282.074219 243.570312 281.605469 246.851562 C 278.113281 270.425781 257.921875 287.914062 234.089844 288 Z M 234.089844 288 "/>
<path style=" stroke:none;fill-rule:nonzero;fill:rgb(21.176471%,21.176471%,21.176471%);fill-opacity:1;" d="M 268.003906 143.203125 C 266.085938 143.203125 264.285156 142.292969 263.152344 140.746094 C 256.355469 131.5 245.570312 126.023438 234.089844 126 C 230.765625 126.007812 228.0625 123.324219 228.042969 120 C 228.03125 118.414062 228.65625 116.886719 229.773438 115.761719 C 230.890625 114.636719 232.414062 114 234 114 C 249.332031 114.007812 263.746094 121.304688 272.832031 133.65625 C 274.164062 135.472656 274.363281 137.882812 273.351562 139.898438 C 272.339844 141.910156 270.285156 143.1875 268.03125 143.203125 Z M 268.003906 143.203125 "/>
<path style=" stroke:none;fill-rule:nonzero;fill:rgb(21.176471%,21.176471%,21.176471%);fill-opacity:1;" d="M 234.089844 258 C 230.765625 258.007812 228.0625 255.324219 228.042969 252 C 228.03125 250.414062 228.65625 248.886719 229.773438 247.761719 C 230.890625 246.636719 232.414062 246 234 246 L 234.089844 246 C 236.070312 246 237.921875 245.019531 239.039062 243.382812 C 240.921875 240.648438 244.664062 239.960938 247.398438 241.84375 C 250.132812 243.722656 250.820312 247.464844 248.941406 250.199219 C 245.578125 255.089844 240.023438 258.007812 234.089844 258 Z M 234.089844 258 "/>
<path style=" stroke:none;fill-rule:nonzero;fill:rgb(21.176471%,21.176471%,21.176471%);fill-opacity:1;" d="M 243.996094 161.21875 C 242.015625 161.222656 240.160156 160.25 239.039062 158.617188 C 237.921875 156.980469 236.070312 156 234.089844 156 C 230.765625 156.007812 228.0625 153.324219 228.042969 150 C 228.03125 148.414062 228.65625 146.886719 229.773438 145.761719 C 230.890625 144.636719 232.414062 144 234 144 C 239.964844 143.96875 245.554688 146.890625 248.941406 151.800781 C 250.808594 154.53125 250.109375 158.261719 247.378906 160.132812 C 246.390625 160.832031 245.207031 161.210938 243.996094 161.21875 Z M 243.996094 161.21875 "/>
<path style=" stroke:none;fill-rule:nonzero;fill:rgb(21.176471%,21.176471%,21.176471%);fill-opacity:1;" d="M 273.089844 192 L 243.089844 192 C 231.492188 192 222.089844 182.597656 222.089844 171 C 222.089844 159.402344 231.492188 150 243.089844 150 L 261.988281 150 C 265.304688 150 267.988281 152.6875 267.988281 156 C 267.988281 159.3125 265.304688 162 261.988281 162 L 243.089844 162 C 238.121094 162 234.089844 166.03125 234.089844 171 C 234.089844 175.96875 238.121094 180 243.089844 180 L 273.089844 180 C 278.0625 180 282.089844 175.96875 282.089844 171 C 282.089844 167.6875 284.777344 165 288.089844 165 C 291.402344 165 294.089844 167.6875 294.089844 171 C 294.089844 182.597656 284.6875 192 273.089844 192 Z M 273.089844 192 "/>
<path style=" stroke:none;fill-rule:nonzero;fill:rgb(21.176471%,21.176471%,21.176471%);fill-opacity:1;" d="M 273.089844 222 L 243.089844 222 C 231.492188 222 222.089844 212.597656 222.089844 201 C 222.089844 189.402344 231.492188 180 243.089844 180 L 273.089844 180 C 284.6875 180 294.089844 189.402344 294.089844 201 C 294.089844 212.597656 284.6875 222 273.089844 222 Z M 243.089844 192 C 238.121094 192 234.089844 196.03125 234.089844 201 C 234.089844 205.96875 238.121094 210 243.089844 210 L 273.089844 210 C 278.0625 210 282.089844 205.96875 282.089844 201 C 282.089844 196.03125 278.0625 192 273.089844 192 Z M 243.089844 192 "/>
<path style=" stroke:none;fill-rule:nonzero;fill:rgb(21.176471%,21.176471%,21.176471%);fill-opacity:1;" d="M 273.089844 252 L 243.089844 252 C 231.492188 252 222.089844 242.597656 222.089844 231 C 222.089844 219.402344 231.492188 210 243.089844 210 L 273.089844 210 C 284.6875 210 294.089844 219.402344 294.089844 231 C 294.089844 242.597656 284.6875 252 273.089844 252 Z M 243.089844 222 C 238.121094 222 234.089844 226.03125 234.089844 231 C 234.089844 235.96875 238.121094 240 243.089844 240 L 273.089844 240 C 278.0625 240 282.089844 235.96875 282.089844 231 C 282.089844 226.03125 278.0625 222 273.089844 222 Z M 243.089844 222 "/>
<path style=" stroke:none;fill-rule:nonzero;fill:rgb(21.176471%,21.176471%,21.176471%);fill-opacity:1;" d="M 327.988281 264 L 273.988281 264 C 270.675781 264 267.988281 261.3125 267.988281 258 C 267.988281 254.6875 270.675781 252 273.988281 252 L 327.988281 252 C 334.617188 252 339.988281 246.628906 339.988281 240 C 339.988281 236.6875 342.675781 234 345.988281 234 C 349.304688 234 351.988281 236.6875 351.988281 240 C 351.988281 253.253906 341.246094 264 327.988281 264 Z M 327.988281 264 "/>
<path style=" stroke:none;fill-rule:nonzero;fill:rgb(21.176471%,21.176471%,21.176471%);fill-opacity:1;" d="M 345.988281 176.808594 C 342.675781 176.808594 339.988281 174.121094 339.988281 170.808594 C 340 167.101562 338.285156 163.601562 335.351562 161.339844 L 293.65625 128.941406 C 287.925781 125.929688 280.839844 128.011719 277.644531 133.644531 L 271.726562 144.085938 C 268.460938 149.851562 270.484375 157.175781 276.25 160.441406 C 282.015625 163.710938 289.339844 161.6875 292.609375 155.921875 C 293.640625 154.011719 295.628906 152.808594 297.800781 152.777344 C 299.972656 152.746094 301.992188 153.890625 303.082031 155.773438 C 304.167969 157.652344 304.152344 159.976562 303.042969 161.84375 C 296.503906 173.375 281.855469 177.417969 270.324219 170.878906 C 258.792969 164.339844 254.75 149.691406 261.289062 138.160156 L 267.210938 127.726562 C 273.746094 116.199219 288.390625 112.152344 299.921875 118.6875 C 300.171875 118.832031 300.410156 118.992188 300.640625 119.164062 L 342.71875 151.867188 C 348.585938 156.398438 352.015625 163.398438 351.988281 170.8125 C 351.988281 174.125 349.300781 176.808594 345.988281 176.808594 Z M 345.988281 176.808594 "/>
<path style=" stroke:none;fill-rule:nonzero;fill:rgb(21.176471%,21.176471%,21.176471%);fill-opacity:1;" d="M 363.988281 246 L 345.988281 246 C 342.675781 246 339.988281 243.3125 339.988281 240 C 339.988281 236.6875 342.675781 234 345.988281 234 L 363.988281 234 C 367.304688 234 369.988281 236.6875 369.988281 240 C 369.988281 243.3125 367.304688 246 363.988281 246 Z M 363.988281 246 "/>
<path style=" stroke:none;fill-rule:nonzero;fill:rgb(21.176471%,21.176471%,21.176471%);fill-opacity:1;" d="M 363.988281 180 L 345.988281 180 C 342.675781 180 339.988281 177.3125 339.988281 174 C 339.988281 170.6875 342.675781 168 345.988281 168 L 363.988281 168 C 367.304688 168 369.988281 170.6875 369.988281 174 C 369.988281 177.3125 367.304688 180 363.988281 180 Z M 363.988281 180 "/>
<path style=" stroke:none;fill-rule:nonzero;fill:rgb(100%,74.117649%,29.019609%);fill-opacity:1;" d="M 223.398438 325.054688 L 216.691406 301.585938 C 216.234375 299.976562 216 298.316406 216 296.644531 L 216 138 C 216 134.6875 213.3125 132 210 132 L 186 132 L 186 138 C 186 144.628906 180.628906 150 174 150 C 167.371094 150 162 144.628906 162 138 L 162 132 L 30 132 C 26.6875 132 24 134.6875 24 138 L 24 296.640625 C 24 298.3125 23.765625 299.980469 23.308594 301.589844 L 16.800781 324.316406 C 15.308594 329.136719 15.808594 334.355469 18.191406 338.800781 C 21.363281 344.5 27.382812 348.023438 33.90625 348 L 205.324219 348 C 210.371094 348.113281 215.253906 346.195312 218.875 342.679688 C 223.476562 338.066406 225.210938 331.316406 223.398438 325.054688 Z M 78 294 C 78 300.628906 72.628906 306 66 306 C 59.371094 306 54 300.628906 54 294 L 54 186 C 54 179.371094 59.371094 174 66 174 C 72.628906 174 78 179.371094 78 186 Z M 132 294 C 132 300.628906 126.628906 306 120 306 C 113.371094 306 108 300.628906 108 294 L 108 186 C 108 179.371094 113.371094 174 120 174 C 126.628906 174 132 179.371094 132 186 Z M 186 294 C 186 300.628906 180.628906 306 174 306 C 167.371094 306 162 300.628906 162 294 L 162 186 C 162 179.371094 167.371094 174 174 174 C 180.628906 174 186 179.371094 186 186 Z M 186 294 "/>
<path style=" stroke:none;fill-rule:nonzero;fill:rgb(21.176471%,21.176471%,21.176471%);fill-opacity:1;" d="M 120 312 C 110.058594 312 102 303.941406 102 294 L 102 186 C 102 176.058594 110.058594 168 120 168 C 129.941406 168 138 176.058594 138 186 L 138 294 C 138 303.941406 129.941406 312 120 312 Z M 120 180 C 116.6875 180 114 182.6875 114 186 L 114 294 C 114 297.3125 116.6875 300 120 300 C 123.3125 300 126 297.3125 126 294 L 126 186 C 126 182.6875 123.3125 180 120 180 Z M 120 180 "/>
<path style=" stroke:none;fill-rule:nonzero;fill:rgb(21.176471%,21.176471%,21.176471%);fill-opacity:1;" d="M 174 312 C 164.058594 312 156 303.941406 156 294 L 156 186 C 156 176.058594 164.058594 168 174 168 C 183.941406 168 192 176.058594 192 186 L 192 294 C 192 303.941406 183.941406 312 174 312 Z M 174 180 C 170.6875 180 168 182.6875 168 186 L 168 294 C 168 297.3125 170.6875 300 174 300 C 177.3125 300 180 297.3125 180 294 L 180 186 C 180 182.6875 177.3125 180 174 180 Z M 174 180 "/>
<path style=" stroke:none;fill-rule:nonzero;fill:rgb(21.176471%,21.176471%,21.176471%);fill-opacity:1;" d="M 66 312 C 56.058594 312 48 303.941406 48 294 L 48 186 C 48 176.058594 56.058594 168 66 168 C 75.941406 168 84 176.058594 84 186 L 84 294 C 84 303.941406 75.941406 312 66 312 Z M 66 180 C 62.6875 180 60 182.6875 60 186 L 60 294 C 60 297.3125 62.6875 300 66 300 C 69.3125 300 72 297.3125 72 294 L 72 186 C 72 182.6875 69.3125 180 66 180 Z M 66 180 "/>
<path style=" stroke:none;fill-rule:nonzero;fill:rgb(21.176471%,21.176471%,21.176471%);fill-opacity:1;" d="M 44.621094 66 C 43.796875 66 42.976562 65.828125 42.222656 65.496094 C 39.1875 64.167969 37.800781 60.636719 39.125 57.601562 C 44.847656 44.492188 57.785156 36.011719 72.089844 36 C 75.296875 36 78.488281 36.449219 81.570312 37.332031 C 87.378906 23.859375 99.808594 14.402344 114.339844 12.394531 C 128.875 10.386719 143.398438 16.117188 152.644531 27.511719 C 157.464844 25.195312 162.742188 23.996094 168.089844 24 C 187.960938 24.023438 204.066406 40.128906 204.089844 60 C 204.089844 63.3125 201.402344 66 198.089844 66 C 194.777344 66 192.089844 63.3125 192.089844 60 C 192.109375 51.046875 187.132812 42.832031 179.191406 38.703125 C 171.25 34.574219 161.667969 35.21875 154.351562 40.375 C 152.988281 41.328125 151.292969 41.675781 149.664062 41.335938 C 148.039062 40.984375 146.628906 39.984375 145.765625 38.5625 C 139.546875 28.175781 127.6875 22.558594 115.710938 24.320312 C 103.734375 26.085938 94 34.886719 91.042969 46.625 C 90.601562 48.378906 89.386719 49.839844 87.746094 50.597656 C 86.105469 51.355469 84.207031 51.335938 82.585938 50.539062 C 76.726562 47.667969 69.949219 47.308594 63.824219 49.546875 C 57.695312 51.785156 52.746094 56.429688 50.117188 62.398438 C 49.164062 64.585938 47.007812 66 44.621094 66 Z M 44.621094 66 "/>
<path style=" stroke:none;fill-rule:nonzero;fill:rgb(21.176471%,21.176471%,21.176471%);fill-opacity:1;" d="M 174.066406 156 C 173.074219 155.996094 172.085938 155.917969 171.109375 155.761719 C 162.3125 154.066406 155.996094 146.3125 156.109375 137.359375 L 156.109375 96 C 156.109375 92.6875 153.421875 90 150.109375 90 C 146.792969 90 144.109375 92.6875 144.109375 96 C 144.117188 102.597656 141.410156 108.910156 136.621094 113.449219 C 131.835938 117.992188 125.386719 120.359375 118.800781 120 C 105.785156 119.035156 95.804688 108.054688 96.078125 95.011719 C 96.074219 92.261719 93.847656 90.035156 91.097656 90.03125 L 42.089844 90.03125 C 38.777344 90.03125 36.089844 92.714844 36.089844 96.03125 L 36 114.03125 C 35.992188 117.34375 33.296875 120.023438 29.984375 120.015625 C 26.671875 120.007812 23.992188 117.3125 24 114 L 24.089844 96 C 24.105469 86.070312 32.160156 78.03125 42.089844 78.03125 L 91.109375 78.03125 C 100.480469 78.042969 108.078125 85.636719 108.089844 95.011719 C 107.90625 101.636719 112.84375 107.292969 119.4375 108 C 122.730469 108.179688 125.953125 106.996094 128.347656 104.726562 C 130.742188 102.453125 132.09375 99.300781 132.089844 96 C 132.089844 86.058594 140.148438 78 150.089844 78 C 160.03125 78 168.089844 86.058594 168.089844 96 L 168.089844 137.359375 C 167.976562 140.4375 170.039062 143.175781 173.035156 143.910156 C 174.78125 144.222656 176.582031 143.746094 177.941406 142.601562 C 179.304688 141.460938 180.089844 139.777344 180.089844 138 L 180.089844 94.980469 C 180.101562 85.609375 187.699219 78.011719 197.070312 78 L 198.089844 78 C 208.03125 78 216.089844 86.058594 216.089844 96 L 216 114 C 215.9375 117.296875 213.269531 119.953125 209.96875 120 C 206.667969 119.984375 204 117.300781 204 114 L 204.089844 96 C 204.074219 92.699219 201.390625 90.03125 198.089844 90.03125 L 197.070312 90.03125 C 194.320312 90.035156 192.09375 92.261719 192.089844 95.011719 L 192.089844 138 C 192.089844 147.941406 184.03125 156 174.089844 156 Z M 174.066406 156 "/>
</g>
</svg>
