<?xml version="1.0" encoding="UTF-8"?>
<svg xmlns="http://www.w3.org/2000/svg" xmlns:xlink="http://www.w3.org/1999/xlink" width="192px" height="192px" viewBox="0 0 192 192" version="1.1">
<g id="surface1">
<path style=" stroke:none;fill-rule:nonzero;fill:rgb(21.176471%,21.176471%,21.176471%);fill-opacity:1;" d="M 117.046875 144 C 115.382812 144.003906 114.03125 142.660156 114.019531 141 C 114.015625 140.207031 114.328125 139.445312 114.886719 138.878906 C 115.445312 138.316406 116.207031 138 117 138 L 117.046875 138 C 125.980469 137.96875 133.550781 131.414062 134.863281 122.574219 C 135.097656 120.933594 136.617188 119.792969 138.257812 120.03125 C 139.898438 120.265625 141.039062 121.785156 140.800781 123.425781 C 139.054688 135.214844 128.960938 143.957031 117.046875 144 Z M 117.046875 144 "/>
<path style=" stroke:none;fill-rule:nonzero;fill:rgb(21.176471%,21.176471%,21.176471%);fill-opacity:1;" d="M 134 71.601562 C 133.042969 71.601562 132.144531 71.144531 131.578125 70.375 C 128.175781 65.75 122.785156 63.011719 117.046875 63 C 115.382812 63.003906 114.03125 61.660156 114.019531 60 C 114.015625 59.207031 114.328125 58.445312 114.886719 57.878906 C 115.445312 57.316406 116.207031 57 117 57 C 124.664062 57.003906 131.875 60.652344 136.414062 66.828125 C 137.082031 67.738281 137.183594 68.941406 136.675781 69.949219 C 136.171875 70.957031 135.144531 71.59375 134.015625 71.601562 Z M 134 71.601562 "/>
<path style=" stroke:none;fill-rule:nonzero;fill:rgb(21.176471%,21.176471%,21.176471%);fill-opacity:1;" d="M 117.046875 129 C 115.382812 129.003906 114.03125 127.660156 114.019531 126 C 114.015625 125.207031 114.328125 124.445312 114.886719 123.878906 C 115.445312 123.316406 116.207031 123 117 123 L 117.046875 123 C 118.035156 123 118.960938 122.511719 119.519531 121.691406 C 120.460938 120.324219 122.332031 119.980469 123.699219 120.921875 C 125.066406 121.863281 125.410156 123.734375 124.46875 125.101562 C 122.789062 127.542969 120.011719 129.003906 117.046875 129 Z M 117.046875 129 "/>
<path style=" stroke:none;fill-rule:nonzero;fill:rgb(21.176471%,21.176471%,21.176471%);fill-opacity:1;" d="M 121.996094 80.609375 C 121.007812 80.613281 120.082031 80.125 119.519531 79.308594 C 118.960938 78.488281 118.035156 78 117.046875 78 C 115.382812 78.003906 114.03125 76.660156 114.019531 75 C 114.015625 74.207031 114.328125 73.445312 114.886719 72.878906 C 115.445312 72.316406 116.207031 72 117 72 C 119.980469 71.984375 122.777344 73.445312 124.46875 75.898438 C 125.402344 77.265625 125.054688 79.132812 123.691406 80.066406 C 123.195312 80.417969 122.605469 80.605469 121.996094 80.609375 Z M 121.996094 80.609375 "/>
<path style=" stroke:none;fill-rule:nonzero;fill:rgb(21.176471%,21.176471%,21.176471%);fill-opacity:1;" d="M 136.546875 96 L 121.546875 96 C 115.746094 96 111.046875 91.300781 111.046875 85.5 C 111.046875 79.699219 115.746094 75 121.546875 75 L 130.996094 75 C 132.652344 75 133.996094 76.34375 133.996094 78 C 133.996094 79.65625 132.652344 81 130.996094 81 L 121.546875 81 C 119.058594 81 117.046875 83.015625 117.046875 85.5 C 117.046875 87.984375 119.058594 90 121.546875 90 L 136.546875 90 C 139.03125 90 141.046875 87.984375 141.046875 85.5 C 141.046875 83.84375 142.386719 82.5 144.046875 82.5 C 145.703125 82.5 147.046875 83.84375 147.046875 85.5 C 147.046875 91.300781 142.34375 96 136.546875 96 Z M 136.546875 96 "/>
<path style=" stroke:none;fill-rule:nonzero;fill:rgb(21.176471%,21.176471%,21.176471%);fill-opacity:1;" d="M 136.546875 111 L 121.546875 111 C 115.746094 111 111.046875 106.300781 111.046875 100.5 C 111.046875 94.699219 115.746094 90 121.546875 90 L 136.546875 90 C 142.34375 90 147.046875 94.699219 147.046875 100.5 C 147.046875 106.300781 142.34375 111 136.546875 111 Z M 121.546875 96 C 119.058594 96 117.046875 98.015625 117.046875 100.5 C 117.046875 102.984375 119.058594 105 121.546875 105 L 136.546875 105 C 139.03125 105 141.046875 102.984375 141.046875 100.5 C 141.046875 98.015625 139.03125 96 136.546875 96 Z M 121.546875 96 "/>
<path style=" stroke:none;fill-rule:nonzero;fill:rgb(21.176471%,21.176471%,21.176471%);fill-opacity:1;" d="M 136.546875 126 L 121.546875 126 C 115.746094 126 111.046875 121.300781 111.046875 115.5 C 111.046875 109.699219 115.746094 105 121.546875 105 L 136.546875 105 C 142.34375 105 147.046875 109.699219 147.046875 115.5 C 147.046875 121.300781 142.34375 126 136.546875 126 Z M 121.546875 111 C 119.058594 111 117.046875 113.015625 117.046875 115.5 C 117.046875 117.984375 119.058594 120 121.546875 120 L 136.546875 120 C 139.03125 120 141.046875 117.984375 141.046875 115.5 C 141.046875 113.015625 139.03125 111 136.546875 111 Z M 121.546875 111 "/>
<path style=" stroke:none;fill-rule:nonzero;fill:rgb(21.176471%,21.176471%,21.176471%);fill-opacity:1;" d="M 163.996094 132 L 136.996094 132 C 135.339844 132 133.996094 130.65625 133.996094 129 C 133.996094 127.34375 135.339844 126 136.996094 126 L 163.996094 126 C 167.308594 126 169.996094 123.3125 169.996094 120 C 169.996094 118.34375 171.339844 117 172.996094 117 C 174.652344 117 175.996094 118.34375 175.996094 120 C 175.996094 126.628906 170.621094 132 163.996094 132 Z M 163.996094 132 "/>
<path style=" stroke:none;fill-rule:nonzero;fill:rgb(21.176471%,21.176471%,21.176471%);fill-opacity:1;" d="M 172.996094 88.402344 C 171.339844 88.402344 169.996094 87.0625 169.996094 85.402344 C 170 83.550781 169.144531 81.800781 167.675781 80.671875 L 146.828125 64.46875 C 143.960938 62.964844 140.417969 64.007812 138.820312 66.820312 L 135.863281 72.042969 C 134.230469 74.925781 135.242188 78.585938 138.125 80.222656 C 141.007812 81.855469 144.667969 80.84375 146.304688 77.960938 C 146.820312 77.003906 147.8125 76.402344 148.898438 76.386719 C 149.988281 76.371094 150.996094 76.945312 151.539062 77.886719 C 152.085938 78.828125 152.078125 79.988281 151.519531 80.921875 C 148.25 86.6875 140.925781 88.710938 135.160156 85.441406 C 129.398438 82.171875 127.375 74.847656 130.644531 69.082031 L 133.605469 63.863281 C 136.875 58.097656 144.195312 56.074219 149.960938 59.34375 C 150.085938 59.414062 150.207031 59.496094 150.320312 59.582031 L 171.359375 75.933594 C 174.292969 78.199219 176.007812 81.699219 175.996094 85.40625 C 175.992188 87.0625 174.652344 88.402344 172.996094 88.402344 Z M 172.996094 88.402344 "/>
<path style=" stroke:none;fill-rule:nonzero;fill:rgb(21.176471%,21.176471%,21.176471%);fill-opacity:1;" d="M 181.996094 123 L 172.996094 123 C 171.339844 123 169.996094 121.65625 169.996094 120 C 169.996094 118.34375 171.339844 117 172.996094 117 L 181.996094 117 C 183.652344 117 184.996094 118.34375 184.996094 120 C 184.996094 121.65625 183.652344 123 181.996094 123 Z M 181.996094 123 "/>
<path style=" stroke:none;fill-rule:nonzero;fill:rgb(21.176471%,21.176471%,21.176471%);fill-opacity:1;" d="M 181.996094 90 L 172.996094 90 C 171.339844 90 169.996094 88.65625 169.996094 87 C 169.996094 85.34375 171.339844 84 172.996094 84 L 181.996094 84 C 183.652344 84 184.996094 85.34375 184.996094 87 C 184.996094 88.65625 183.652344 90 181.996094 90 Z M 181.996094 90 "/>
<path style=" stroke:none;fill-rule:nonzero;fill:rgb(100%,74.117649%,29.019609%);fill-opacity:1;" d="M 111.699219 162.527344 L 108.34375 150.792969 C 108.117188 149.988281 108 149.15625 108 148.324219 L 108 69 C 108 67.34375 106.65625 66 105 66 L 93 66 L 93 69 C 93 72.3125 90.3125 75 87 75 C 83.6875 75 81 72.3125 81 69 L 81 66 L 15 66 C 13.34375 66 12 67.34375 12 69 L 12 148.320312 C 12 149.15625 11.882812 149.988281 11.65625 150.796875 L 8.398438 162.160156 C 7.65625 164.570312 7.90625 167.175781 9.097656 169.402344 C 10.683594 172.25 13.691406 174.011719 16.953125 174 L 102.664062 174 C 105.1875 174.054688 107.625 173.097656 109.4375 171.339844 C 111.738281 169.03125 112.605469 165.65625 111.699219 162.527344 Z M 39 147 C 39 150.3125 36.3125 153 33 153 C 29.6875 153 27 150.3125 27 147 L 27 93 C 27 89.6875 29.6875 87 33 87 C 36.3125 87 39 89.6875 39 93 Z M 66 147 C 66 150.3125 63.3125 153 60 153 C 56.6875 153 54 150.3125 54 147 L 54 93 C 54 89.6875 56.6875 87 60 87 C 63.3125 87 66 89.6875 66 93 Z M 93 147 C 93 150.3125 90.3125 153 87 153 C 83.6875 153 81 150.3125 81 147 L 81 93 C 81 89.6875 83.6875 87 87 87 C 90.3125 87 93 89.6875 93 93 Z M 93 147 "/>
<path style=" stroke:none;fill-rule:nonzero;fill:rgb(21.176471%,21.176471%,21.176471%);fill-opacity:1;" d="M 60 156 C 55.03125 156 51 151.96875 51 147 L 51 93 C 51 88.03125 55.03125 84 60 84 C 64.96875 84 69 88.03125 69 93 L 69 147 C 69 151.96875 64.96875 156 60 156 Z M 60 90 C 58.34375 90 57 91.34375 57 93 L 57 147 C 57 148.65625 58.34375 150 60 150 C 61.65625 150 63 148.65625 63 147 L 63 93 C 63 91.34375 61.65625 90 60 90 Z M 60 90 "/>
<path style=" stroke:none;fill-rule:nonzero;fill:rgb(21.176471%,21.176471%,21.176471%);fill-opacity:1;" d="M 87 156 C 82.03125 156 78 151.96875 78 147 L 78 93 C 78 88.03125 82.03125 84 87 84 C 91.96875 84 96 88.03125 96 93 L 96 147 C 96 151.96875 91.96875 156 87 156 Z M 87 90 C 85.34375 90 84 91.34375 84 93 L 84 147 C 84 148.65625 85.34375 150 87 150 C 88.65625 150 90 148.65625 90 147 L 90 93 C 90 91.34375 88.65625 90 87 90 Z M 87 90 "/>
<path style=" stroke:none;fill-rule:nonzero;fill:rgb(21.176471%,21.176471%,21.176471%);fill-opacity:1;" d="M 33 156 C 28.03125 156 24 151.96875 24 147 L 24 93 C 24 88.03125 28.03125 84 33 84 C 37.96875 84 42 88.03125 42 93 L 42 147 C 42 151.96875 37.96875 156 33 156 Z M 33 90 C 31.34375 90 30 91.34375 30 93 L 30 147 C 30 148.65625 31.34375 150 33 150 C 34.65625 150 36 148.65625 36 147 L 36 93 C 36 91.34375 34.65625 90 33 90 Z M 33 90 "/>
<path style=" stroke:none;fill-rule:nonzero;fill:rgb(21.176471%,21.176471%,21.176471%);fill-opacity:1;" d="M 22.3125 33 C 21.898438 33 21.488281 32.914062 21.109375 32.746094 C 19.59375 32.085938 18.902344 30.316406 19.5625 28.800781 C 22.421875 22.246094 28.894531 18.007812 36.046875 18 C 37.648438 18 39.242188 18.226562 40.785156 18.664062 C 43.691406 11.929688 49.902344 7.203125 57.171875 6.195312 C 64.4375 5.191406 71.699219 8.058594 76.324219 13.753906 C 78.734375 12.597656 81.371094 11.996094 84.046875 12 C 93.980469 12.011719 102.035156 20.0625 102.046875 30 C 102.046875 31.65625 100.703125 33 99.046875 33 C 97.386719 33 96.046875 31.65625 96.046875 30 C 96.054688 25.523438 93.566406 21.417969 89.597656 19.351562 C 85.625 17.285156 80.832031 17.609375 77.175781 20.1875 C 76.496094 20.664062 75.644531 20.839844 74.832031 20.667969 C 74.019531 20.492188 73.3125 19.992188 72.882812 19.28125 C 69.773438 14.089844 63.84375 11.277344 57.855469 12.160156 C 51.867188 13.042969 47 17.445312 45.523438 23.3125 C 45.300781 24.191406 44.695312 24.917969 43.875 25.300781 C 43.050781 25.679688 42.105469 25.667969 41.292969 25.269531 C 38.363281 23.832031 34.976562 23.65625 31.910156 24.773438 C 28.847656 25.894531 26.371094 28.214844 25.058594 31.199219 C 24.582031 32.292969 23.503906 33 22.3125 33 Z M 22.3125 33 "/>
<path style=" stroke:none;fill-rule:nonzero;fill:rgb(21.176471%,21.176471%,21.176471%);fill-opacity:1;" d="M 87.03125 78 C 86.539062 78 86.042969 77.957031 85.554688 77.878906 C 81.15625 77.03125 77.996094 73.15625 78.054688 68.679688 L 78.054688 48 C 78.054688 46.34375 76.710938 45 75.054688 45 C 73.398438 45 72.054688 46.34375 72.054688 48 C 72.058594 51.300781 70.707031 54.453125 68.3125 56.726562 C 65.917969 58.996094 62.695312 60.179688 59.398438 60 C 52.894531 59.519531 47.902344 54.027344 48.039062 47.503906 C 48.039062 46.128906 46.921875 45.015625 45.550781 45.015625 L 21.046875 45.015625 C 19.386719 45.015625 18.046875 46.359375 18.046875 48.015625 L 18 57.015625 C 17.996094 58.671875 16.648438 60.011719 14.992188 60.007812 C 13.335938 60.003906 11.996094 58.65625 12 57 L 12.046875 48 C 12.054688 43.035156 16.082031 39.015625 21.046875 39.015625 L 45.554688 39.015625 C 50.242188 39.023438 54.039062 42.820312 54.046875 47.503906 C 53.953125 50.816406 56.421875 53.644531 59.71875 54 C 61.363281 54.089844 62.976562 53.496094 64.171875 52.363281 C 65.371094 51.226562 66.046875 49.648438 66.046875 48 C 66.046875 43.03125 70.074219 39 75.046875 39 C 80.015625 39 84.046875 43.03125 84.046875 48 L 84.046875 68.679688 C 83.988281 70.21875 85.019531 71.585938 86.515625 71.953125 C 87.390625 72.113281 88.289062 71.871094 88.972656 71.300781 C 89.652344 70.730469 90.046875 69.886719 90.046875 69 L 90.046875 47.488281 C 90.050781 42.804688 93.847656 39.007812 98.535156 39 L 99.046875 39 C 104.015625 39 108.046875 43.03125 108.046875 48 L 108 57 C 107.96875 58.648438 106.632812 59.976562 104.984375 60 C 103.335938 59.992188 102 58.652344 102 57 L 102.046875 48 C 102.035156 46.347656 100.695312 45.015625 99.046875 45.015625 L 98.535156 45.015625 C 97.160156 45.015625 96.046875 46.128906 96.046875 47.503906 L 96.046875 69 C 96.046875 73.96875 92.015625 78 87.046875 78 Z M 87.03125 78 "/>
</g>
</svg>
