<?xml version="1.0" encoding="UTF-8"?>
<svg xmlns="http://www.w3.org/2000/svg" xmlns:xlink="http://www.w3.org/1999/xlink" width="72px" height="72px" viewBox="0 0 72 72" version="1.1">
<g id="surface1">
<path style=" stroke:none;fill-rule:nonzero;fill:rgb(21.176471%,21.176471%,21.176471%);fill-opacity:1;" d="M 43.890625 54 C 43.269531 54 42.761719 53.5 42.757812 52.875 C 42.757812 52.578125 42.871094 52.292969 43.082031 52.082031 C 43.292969 51.871094 43.578125 51.75 43.875 51.75 L 43.890625 51.75 C 47.242188 51.738281 50.082031 49.28125 50.574219 45.964844 C 50.660156 45.351562 51.230469 44.921875 51.847656 45.011719 C 52.460938 45.097656 52.890625 45.667969 52.800781 46.285156 C 52.144531 50.703125 48.359375 53.984375 43.890625 54 Z M 43.890625 54 "/>
<path style=" stroke:none;fill-rule:nonzero;fill:rgb(21.176471%,21.176471%,21.176471%);fill-opacity:1;" d="M 50.25 26.851562 C 49.890625 26.851562 49.554688 26.679688 49.339844 26.390625 C 48.066406 24.65625 46.042969 23.628906 43.890625 23.625 C 43.269531 23.625 42.761719 23.125 42.757812 22.5 C 42.757812 22.203125 42.871094 21.917969 43.082031 21.707031 C 43.292969 21.496094 43.578125 21.375 43.875 21.375 C 46.75 21.375 49.453125 22.746094 51.15625 25.058594 C 51.40625 25.402344 51.445312 25.851562 51.253906 26.230469 C 51.0625 26.609375 50.679688 26.847656 50.257812 26.851562 Z M 50.25 26.851562 "/>
<path style=" stroke:none;fill-rule:nonzero;fill:rgb(21.176471%,21.176471%,21.176471%);fill-opacity:1;" d="M 43.890625 48.375 C 43.269531 48.375 42.761719 47.875 42.757812 47.25 C 42.757812 46.953125 42.871094 46.667969 43.082031 46.457031 C 43.292969 46.246094 43.578125 46.125 43.875 46.125 L 43.890625 46.125 C 44.261719 46.125 44.609375 45.941406 44.820312 45.632812 C 45.171875 45.121094 45.875 44.992188 46.386719 45.34375 C 46.898438 45.699219 47.027344 46.398438 46.675781 46.914062 C 46.046875 47.828125 45.003906 48.375 43.890625 48.375 Z M 43.890625 48.375 "/>
<path style=" stroke:none;fill-rule:nonzero;fill:rgb(21.176471%,21.176471%,21.176471%);fill-opacity:1;" d="M 45.75 30.230469 C 45.378906 30.230469 45.03125 30.046875 44.820312 29.742188 C 44.609375 29.433594 44.261719 29.25 43.890625 29.25 C 43.269531 29.25 42.761719 28.75 42.757812 28.125 C 42.757812 27.828125 42.871094 27.542969 43.082031 27.332031 C 43.292969 27.121094 43.578125 27 43.875 27 C 44.992188 26.996094 46.042969 27.542969 46.675781 28.460938 C 47.027344 28.976562 46.894531 29.675781 46.382812 30.023438 C 46.199219 30.15625 45.976562 30.226562 45.75 30.230469 Z M 45.75 30.230469 "/>
<path style=" stroke:none;fill-rule:nonzero;fill:rgb(21.176471%,21.176471%,21.176471%);fill-opacity:1;" d="M 51.203125 36 L 45.578125 36 C 43.40625 36 41.640625 34.238281 41.640625 32.0625 C 41.640625 29.886719 43.40625 28.125 45.578125 28.125 L 49.125 28.125 C 49.746094 28.125 50.25 28.628906 50.25 29.25 C 50.25 29.871094 49.746094 30.375 49.125 30.375 L 45.578125 30.375 C 44.648438 30.375 43.890625 31.128906 43.890625 32.0625 C 43.890625 32.996094 44.648438 33.75 45.578125 33.75 L 51.203125 33.75 C 52.136719 33.75 52.890625 32.996094 52.890625 32.0625 C 52.890625 31.441406 53.394531 30.9375 54.015625 30.9375 C 54.636719 30.9375 55.140625 31.441406 55.140625 32.0625 C 55.140625 34.238281 53.378906 36 51.203125 36 Z M 51.203125 36 "/>
<path style=" stroke:none;fill-rule:nonzero;fill:rgb(21.176471%,21.176471%,21.176471%);fill-opacity:1;" d="M 51.203125 41.625 L 45.578125 41.625 C 43.40625 41.625 41.640625 39.863281 41.640625 37.6875 C 41.640625 35.511719 43.40625 33.75 45.578125 33.75 L 51.203125 33.75 C 53.378906 33.75 55.140625 35.511719 55.140625 37.6875 C 55.140625 39.863281 53.378906 41.625 51.203125 41.625 Z M 45.578125 36 C 44.648438 36 43.890625 36.753906 43.890625 37.6875 C 43.890625 38.621094 44.648438 39.375 45.578125 39.375 L 51.203125 39.375 C 52.136719 39.375 52.890625 38.621094 52.890625 37.6875 C 52.890625 36.753906 52.136719 36 51.203125 36 Z M 45.578125 36 "/>
<path style=" stroke:none;fill-rule:nonzero;fill:rgb(21.176471%,21.176471%,21.176471%);fill-opacity:1;" d="M 51.203125 47.25 L 45.578125 47.25 C 43.40625 47.25 41.640625 45.488281 41.640625 43.3125 C 41.640625 41.136719 43.40625 39.375 45.578125 39.375 L 51.203125 39.375 C 53.378906 39.375 55.140625 41.136719 55.140625 43.3125 C 55.140625 45.488281 53.378906 47.25 51.203125 47.25 Z M 45.578125 41.625 C 44.648438 41.625 43.890625 42.378906 43.890625 43.3125 C 43.890625 44.246094 44.648438 45 45.578125 45 L 51.203125 45 C 52.136719 45 52.890625 44.246094 52.890625 43.3125 C 52.890625 42.378906 52.136719 41.625 51.203125 41.625 Z M 45.578125 41.625 "/>
<path style=" stroke:none;fill-rule:nonzero;fill:rgb(21.176471%,21.176471%,21.176471%);fill-opacity:1;" d="M 61.5 49.5 L 51.375 49.5 C 50.75 49.5 50.25 48.996094 50.25 48.375 C 50.25 47.753906 50.75 47.25 51.375 47.25 L 61.5 47.25 C 62.742188 47.25 63.75 46.242188 63.75 45 C 63.75 44.378906 64.25 43.875 64.875 43.875 C 65.496094 43.875 66 44.378906 66 45 C 66 47.484375 63.984375 49.5 61.5 49.5 Z M 61.5 49.5 "/>
<path style=" stroke:none;fill-rule:nonzero;fill:rgb(21.176471%,21.176471%,21.176471%);fill-opacity:1;" d="M 64.875 33.152344 C 64.25 33.152344 63.75 32.648438 63.75 32.027344 C 63.75 31.332031 63.429688 30.675781 62.878906 30.25 L 55.0625 24.175781 C 53.984375 23.613281 52.65625 24.003906 52.058594 25.058594 L 50.949219 27.015625 C 50.335938 28.097656 50.714844 29.46875 51.796875 30.082031 C 52.878906 30.695312 54.25 30.316406 54.863281 29.234375 C 55.058594 28.875 55.429688 28.652344 55.835938 28.644531 C 56.246094 28.640625 56.625 28.855469 56.828125 29.207031 C 57.03125 29.558594 57.027344 29.996094 56.820312 30.347656 C 55.59375 32.507812 52.847656 33.265625 50.6875 32.039062 C 48.523438 30.8125 47.765625 28.066406 48.992188 25.90625 L 50.101562 23.949219 C 51.328125 21.789062 54.074219 21.027344 56.234375 22.253906 C 56.28125 22.28125 56.328125 22.3125 56.371094 22.34375 L 64.261719 28.476562 C 65.359375 29.324219 66.003906 30.636719 66 32.027344 C 65.996094 32.648438 65.492188 33.152344 64.875 33.152344 Z M 64.875 33.152344 "/>
<path style=" stroke:none;fill-rule:nonzero;fill:rgb(21.176471%,21.176471%,21.176471%);fill-opacity:1;" d="M 68.25 46.125 L 64.875 46.125 C 64.25 46.125 63.75 45.621094 63.75 45 C 63.75 44.378906 64.25 43.875 64.875 43.875 L 68.25 43.875 C 68.871094 43.875 69.375 44.378906 69.375 45 C 69.375 45.621094 68.871094 46.125 68.25 46.125 Z M 68.25 46.125 "/>
<path style=" stroke:none;fill-rule:nonzero;fill:rgb(21.176471%,21.176471%,21.176471%);fill-opacity:1;" d="M 68.25 33.75 L 64.875 33.75 C 64.25 33.75 63.75 33.246094 63.75 32.625 C 63.75 32.003906 64.25 31.5 64.875 31.5 L 68.25 31.5 C 68.871094 31.5 69.375 32.003906 69.375 32.625 C 69.375 33.246094 68.871094 33.75 68.25 33.75 Z M 68.25 33.75 "/>
<path style=" stroke:none;fill-rule:nonzero;fill:rgb(100%,74.117649%,29.019609%);fill-opacity:1;" d="M 41.886719 60.949219 L 40.628906 56.546875 C 40.542969 56.246094 40.5 55.933594 40.5 55.621094 L 40.5 25.875 C 40.5 25.253906 39.996094 24.75 39.375 24.75 L 34.875 24.75 L 34.875 25.875 C 34.875 27.117188 33.867188 28.125 32.625 28.125 C 31.382812 28.125 30.375 27.117188 30.375 25.875 L 30.375 24.75 L 5.625 24.75 C 5.003906 24.75 4.5 25.253906 4.5 25.875 L 4.5 55.621094 C 4.5 55.933594 4.457031 56.246094 4.371094 56.546875 L 3.148438 60.808594 C 2.871094 61.714844 2.964844 62.691406 3.410156 63.523438 C 4.003906 64.59375 5.132812 65.253906 6.355469 65.25 L 38.5 65.25 C 39.445312 65.269531 40.359375 64.910156 41.039062 64.253906 C 41.902344 63.386719 42.226562 62.121094 41.886719 60.949219 Z M 14.625 55.125 C 14.625 56.367188 13.617188 57.375 12.375 57.375 C 11.132812 57.375 10.125 56.367188 10.125 55.125 L 10.125 34.875 C 10.125 33.632812 11.132812 32.625 12.375 32.625 C 13.617188 32.625 14.625 33.632812 14.625 34.875 Z M 24.75 55.125 C 24.75 56.367188 23.742188 57.375 22.5 57.375 C 21.257812 57.375 20.25 56.367188 20.25 55.125 L 20.25 34.875 C 20.25 33.632812 21.257812 32.625 22.5 32.625 C 23.742188 32.625 24.75 33.632812 24.75 34.875 Z M 34.875 55.125 C 34.875 56.367188 33.867188 57.375 32.625 57.375 C 31.382812 57.375 30.375 56.367188 30.375 55.125 L 30.375 34.875 C 30.375 33.632812 31.382812 32.625 32.625 32.625 C 33.867188 32.625 34.875 33.632812 34.875 34.875 Z M 34.875 55.125 "/>
<path style=" stroke:none;fill-rule:nonzero;fill:rgb(21.176471%,21.176471%,21.176471%);fill-opacity:1;" d="M 22.5 58.5 C 20.636719 58.5 19.125 56.988281 19.125 55.125 L 19.125 34.875 C 19.125 33.011719 20.636719 31.5 22.5 31.5 C 24.363281 31.5 25.875 33.011719 25.875 34.875 L 25.875 55.125 C 25.875 56.988281 24.363281 58.5 22.5 58.5 Z M 22.5 33.75 C 21.878906 33.75 21.375 34.253906 21.375 34.875 L 21.375 55.125 C 21.375 55.746094 21.878906 56.25 22.5 56.25 C 23.121094 56.25 23.625 55.746094 23.625 55.125 L 23.625 34.875 C 23.625 34.253906 23.121094 33.75 22.5 33.75 Z M 22.5 33.75 "/>
<path style=" stroke:none;fill-rule:nonzero;fill:rgb(21.176471%,21.176471%,21.176471%);fill-opacity:1;" d="M 32.625 58.5 C 30.761719 58.5 29.25 56.988281 29.25 55.125 L 29.25 34.875 C 29.25 33.011719 30.761719 31.5 32.625 31.5 C 34.488281 31.5 36 33.011719 36 34.875 L 36 55.125 C 36 56.988281 34.488281 58.5 32.625 58.5 Z M 32.625 33.75 C 32.003906 33.75 31.5 34.253906 31.5 34.875 L 31.5 55.125 C 31.5 55.746094 32.003906 56.25 32.625 56.25 C 33.246094 56.25 33.75 55.746094 33.75 55.125 L 33.75 34.875 C 33.75 34.253906 33.246094 33.75 32.625 33.75 Z M 32.625 33.75 "/>
<path style=" stroke:none;fill-rule:nonzero;fill:rgb(21.176471%,21.176471%,21.176471%);fill-opacity:1;" d="M 12.375 58.5 C 10.511719 58.5 9 56.988281 9 55.125 L 9 34.875 C 9 33.011719 10.511719 31.5 12.375 31.5 C 14.238281 31.5 15.75 33.011719 15.75 34.875 L 15.75 55.125 C 15.75 56.988281 14.238281 58.5 12.375 58.5 Z M 12.375 33.75 C 11.753906 33.75 11.25 34.253906 11.25 34.875 L 11.25 55.125 C 11.25 55.746094 11.753906 56.25 12.375 56.25 C 12.996094 56.25 13.5 55.746094 13.5 55.125 L 13.5 34.875 C 13.5 34.253906 12.996094 33.75 12.375 33.75 Z M 12.375 33.75 "/>
<path style=" stroke:none;fill-rule:nonzero;fill:rgb(21.176471%,21.176471%,21.176471%);fill-opacity:1;" d="M 8.367188 12.375 C 8.210938 12.375 8.058594 12.34375 7.917969 12.28125 C 7.347656 12.03125 7.089844 11.367188 7.335938 10.800781 C 8.410156 8.34375 10.835938 6.753906 13.515625 6.75 C 14.117188 6.75 14.714844 6.835938 15.292969 7 C 16.382812 4.472656 18.714844 2.699219 21.4375 2.324219 C 24.164062 1.949219 26.886719 3.023438 28.621094 5.15625 C 29.523438 4.722656 30.515625 4.5 31.515625 4.5 C 35.242188 4.503906 38.261719 7.523438 38.265625 11.25 C 38.265625 11.871094 37.761719 12.375 37.140625 12.375 C 36.519531 12.375 36.015625 11.871094 36.015625 11.25 C 36.019531 9.570312 35.085938 8.03125 33.597656 7.257812 C 32.109375 6.480469 30.3125 6.601562 28.941406 7.570312 C 28.683594 7.75 28.367188 7.816406 28.0625 7.75 C 27.757812 7.683594 27.492188 7.496094 27.332031 7.230469 C 26.164062 5.28125 23.941406 4.230469 21.695312 4.558594 C 19.449219 4.890625 17.625 6.542969 17.070312 8.742188 C 16.988281 9.070312 16.761719 9.34375 16.453125 9.488281 C 16.144531 9.628906 15.789062 9.625 15.484375 9.476562 C 14.386719 8.9375 13.117188 8.871094 11.964844 9.289062 C 10.816406 9.710938 9.890625 10.582031 9.398438 11.699219 C 9.21875 12.109375 8.8125 12.375 8.367188 12.375 Z M 8.367188 12.375 "/>
<path style=" stroke:none;fill-rule:nonzero;fill:rgb(21.176471%,21.176471%,21.176471%);fill-opacity:1;" d="M 32.636719 29.25 C 32.453125 29.25 32.265625 29.234375 32.082031 29.203125 C 30.433594 28.886719 29.25 27.433594 29.269531 25.753906 L 29.269531 18 C 29.269531 17.378906 28.765625 16.875 28.144531 16.875 C 27.523438 16.875 27.019531 17.378906 27.019531 18 C 27.023438 19.238281 26.515625 20.421875 25.617188 21.273438 C 24.71875 22.125 23.511719 22.566406 22.273438 22.5 C 19.835938 22.320312 17.964844 20.261719 18.015625 17.8125 C 18.015625 17.300781 17.597656 16.882812 17.082031 16.878906 L 7.890625 16.878906 C 7.269531 16.878906 6.765625 17.382812 6.765625 18.003906 L 6.75 21.378906 C 6.75 22 6.242188 22.503906 5.621094 22.503906 C 5 22.5 4.5 21.996094 4.5 21.375 L 4.515625 18 C 4.519531 16.136719 6.03125 14.628906 7.890625 14.628906 L 17.082031 14.628906 C 18.839844 14.632812 20.265625 16.058594 20.265625 17.8125 C 20.230469 19.058594 21.160156 20.117188 22.394531 20.25 C 23.011719 20.285156 23.617188 20.0625 24.066406 19.636719 C 24.515625 19.210938 24.769531 18.617188 24.765625 18 C 24.765625 16.136719 26.277344 14.625 28.140625 14.625 C 30.003906 14.625 31.515625 16.136719 31.515625 18 L 31.515625 25.753906 C 31.496094 26.332031 31.882812 26.84375 32.445312 26.984375 C 32.773438 27.042969 33.109375 26.953125 33.363281 26.738281 C 33.621094 26.523438 33.765625 26.207031 33.765625 25.875 L 33.765625 17.808594 C 33.769531 16.050781 35.191406 14.628906 36.949219 14.625 L 37.140625 14.625 C 39.003906 14.625 40.515625 16.136719 40.515625 18 L 40.5 21.375 C 40.488281 21.992188 39.988281 22.492188 39.371094 22.5 C 38.75 22.496094 38.25 21.992188 38.25 21.375 L 38.265625 18 C 38.265625 17.382812 37.761719 16.878906 37.140625 16.878906 L 36.949219 16.878906 C 36.433594 16.882812 36.015625 17.300781 36.015625 17.8125 L 36.015625 25.875 C 36.015625 27.738281 34.503906 29.25 32.640625 29.25 Z M 32.636719 29.25 "/>
</g>
</svg>
