<?xml version="1.0" encoding="UTF-8"?>
<svg xmlns="http://www.w3.org/2000/svg" xmlns:xlink="http://www.w3.org/1999/xlink" width="144px" height="144px" viewBox="0 0 144 144" version="1.1">
<g id="surface1">
<path style=" stroke:none;fill-rule:nonzero;fill:rgb(21.176471%,21.176471%,21.176471%);fill-opacity:1;" d="M 87.785156 108 C 86.539062 108.003906 85.523438 106.996094 85.515625 105.75 C 85.511719 105.15625 85.746094 104.582031 86.164062 104.160156 C 86.585938 103.738281 87.15625 103.5 87.75 103.5 L 87.785156 103.5 C 94.484375 103.476562 100.164062 98.558594 101.148438 91.929688 C 101.324219 90.699219 102.464844 89.847656 103.695312 90.023438 C 104.921875 90.199219 105.777344 91.339844 105.601562 92.570312 C 104.292969 101.410156 96.71875 107.96875 87.785156 108 Z M 87.785156 108 "/>
<path style=" stroke:none;fill-rule:nonzero;fill:rgb(21.176471%,21.176471%,21.176471%);fill-opacity:1;" d="M 100.5 53.699219 C 99.78125 53.703125 99.105469 53.359375 98.683594 52.78125 C 96.132812 49.3125 92.089844 47.257812 87.785156 47.25 C 86.539062 47.253906 85.523438 46.246094 85.515625 45 C 85.511719 44.40625 85.746094 43.832031 86.164062 43.410156 C 86.585938 42.988281 87.15625 42.75 87.75 42.75 C 93.5 42.753906 98.90625 45.488281 102.3125 50.121094 C 102.8125 50.800781 102.886719 51.707031 102.507812 52.460938 C 102.128906 53.214844 101.355469 53.695312 100.511719 53.699219 Z M 100.5 53.699219 "/>
<path style=" stroke:none;fill-rule:nonzero;fill:rgb(21.176471%,21.176471%,21.176471%);fill-opacity:1;" d="M 87.785156 96.75 C 86.539062 96.753906 85.523438 95.746094 85.515625 94.5 C 85.511719 93.90625 85.746094 93.332031 86.164062 92.910156 C 86.585938 92.488281 87.15625 92.25 87.75 92.25 L 87.785156 92.25 C 88.527344 92.25 89.222656 91.882812 89.640625 91.269531 C 90.347656 90.242188 91.75 89.984375 92.773438 90.691406 C 93.800781 91.398438 94.058594 92.800781 93.351562 93.824219 C 92.089844 95.65625 90.007812 96.753906 87.785156 96.75 Z M 87.785156 96.75 "/>
<path style=" stroke:none;fill-rule:nonzero;fill:rgb(21.176471%,21.176471%,21.176471%);fill-opacity:1;" d="M 91.5 60.457031 C 90.753906 60.457031 90.058594 60.09375 89.640625 59.480469 C 89.222656 58.867188 88.527344 58.5 87.785156 58.5 C 86.539062 58.503906 85.523438 57.496094 85.515625 56.25 C 85.511719 55.65625 85.746094 55.082031 86.164062 54.660156 C 86.585938 54.238281 87.15625 54 87.75 54 C 89.984375 53.988281 92.082031 55.082031 93.351562 56.925781 C 94.054688 57.949219 93.792969 59.347656 92.765625 60.050781 C 92.394531 60.3125 91.953125 60.453125 91.5 60.457031 Z M 91.5 60.457031 "/>
<path style=" stroke:none;fill-rule:nonzero;fill:rgb(21.176471%,21.176471%,21.176471%);fill-opacity:1;" d="M 102.410156 72 L 91.160156 72 C 86.808594 72 83.285156 68.472656 83.285156 64.125 C 83.285156 59.777344 86.808594 56.25 91.160156 56.25 L 98.246094 56.25 C 99.488281 56.25 100.496094 57.257812 100.496094 58.5 C 100.496094 59.742188 99.488281 60.75 98.246094 60.75 L 91.160156 60.75 C 89.292969 60.75 87.785156 62.261719 87.785156 64.125 C 87.785156 65.988281 89.292969 67.5 91.160156 67.5 L 102.410156 67.5 C 104.273438 67.5 105.785156 65.988281 105.785156 64.125 C 105.785156 62.882812 106.792969 61.875 108.035156 61.875 C 109.277344 61.875 110.285156 62.882812 110.285156 64.125 C 110.285156 68.472656 106.757812 72 102.410156 72 Z M 102.410156 72 "/>
<path style=" stroke:none;fill-rule:nonzero;fill:rgb(21.176471%,21.176471%,21.176471%);fill-opacity:1;" d="M 102.410156 83.25 L 91.160156 83.25 C 86.808594 83.25 83.285156 79.722656 83.285156 75.375 C 83.285156 71.027344 86.808594 67.5 91.160156 67.5 L 102.410156 67.5 C 106.757812 67.5 110.285156 71.027344 110.285156 75.375 C 110.285156 79.722656 106.757812 83.25 102.410156 83.25 Z M 91.160156 72 C 89.292969 72 87.785156 73.511719 87.785156 75.375 C 87.785156 77.238281 89.292969 78.75 91.160156 78.75 L 102.410156 78.75 C 104.273438 78.75 105.785156 77.238281 105.785156 75.375 C 105.785156 73.511719 104.273438 72 102.410156 72 Z M 91.160156 72 "/>
<path style=" stroke:none;fill-rule:nonzero;fill:rgb(21.176471%,21.176471%,21.176471%);fill-opacity:1;" d="M 102.410156 94.5 L 91.160156 94.5 C 86.808594 94.5 83.285156 90.972656 83.285156 86.625 C 83.285156 82.277344 86.808594 78.75 91.160156 78.75 L 102.410156 78.75 C 106.757812 78.75 110.285156 82.277344 110.285156 86.625 C 110.285156 90.972656 106.757812 94.5 102.410156 94.5 Z M 91.160156 83.25 C 89.292969 83.25 87.785156 84.761719 87.785156 86.625 C 87.785156 88.488281 89.292969 90 91.160156 90 L 102.410156 90 C 104.273438 90 105.785156 88.488281 105.785156 86.625 C 105.785156 84.761719 104.273438 83.25 102.410156 83.25 Z M 91.160156 83.25 "/>
<path style=" stroke:none;fill-rule:nonzero;fill:rgb(21.176471%,21.176471%,21.176471%);fill-opacity:1;" d="M 122.996094 99 L 102.746094 99 C 101.503906 99 100.496094 97.992188 100.496094 96.75 C 100.496094 95.507812 101.503906 94.5 102.746094 94.5 L 122.996094 94.5 C 125.480469 94.5 127.496094 92.484375 127.496094 90 C 127.496094 88.757812 128.503906 87.75 129.746094 87.75 C 130.988281 87.75 131.996094 88.757812 131.996094 90 C 131.996094 94.96875 127.96875 99 122.996094 99 Z M 122.996094 99 "/>
<path style=" stroke:none;fill-rule:nonzero;fill:rgb(21.176471%,21.176471%,21.176471%);fill-opacity:1;" d="M 129.746094 66.304688 C 128.503906 66.304688 127.496094 65.296875 127.496094 64.054688 C 127.5 62.664062 126.855469 61.351562 125.757812 60.503906 L 110.121094 48.351562 C 107.972656 47.222656 105.316406 48.003906 104.117188 50.117188 L 101.898438 54.03125 C 100.671875 56.195312 101.429688 58.941406 103.59375 60.167969 C 105.753906 61.390625 108.503906 60.632812 109.726562 58.472656 C 110.117188 57.753906 110.859375 57.300781 111.675781 57.289062 C 112.488281 57.277344 113.246094 57.710938 113.65625 58.414062 C 114.0625 59.121094 114.058594 59.992188 113.640625 60.691406 C 111.1875 65.015625 105.695312 66.53125 101.371094 64.078125 C 97.046875 61.628906 95.53125 56.132812 97.984375 51.8125 L 100.203125 47.898438 C 102.65625 43.574219 108.148438 42.054688 112.472656 44.507812 C 112.5625 44.5625 112.652344 44.621094 112.742188 44.6875 L 128.519531 56.949219 C 130.71875 58.648438 132.003906 61.273438 131.996094 64.054688 C 131.996094 65.296875 130.988281 66.304688 129.746094 66.304688 Z M 129.746094 66.304688 "/>
<path style=" stroke:none;fill-rule:nonzero;fill:rgb(21.176471%,21.176471%,21.176471%);fill-opacity:1;" d="M 136.496094 92.25 L 129.746094 92.25 C 128.503906 92.25 127.496094 91.242188 127.496094 90 C 127.496094 88.757812 128.503906 87.75 129.746094 87.75 L 136.496094 87.75 C 137.738281 87.75 138.746094 88.757812 138.746094 90 C 138.746094 91.242188 137.738281 92.25 136.496094 92.25 Z M 136.496094 92.25 "/>
<path style=" stroke:none;fill-rule:nonzero;fill:rgb(21.176471%,21.176471%,21.176471%);fill-opacity:1;" d="M 136.496094 67.5 L 129.746094 67.5 C 128.503906 67.5 127.496094 66.492188 127.496094 65.25 C 127.496094 64.007812 128.503906 63 129.746094 63 L 136.496094 63 C 137.738281 63 138.746094 64.007812 138.746094 65.25 C 138.746094 66.492188 137.738281 67.5 136.496094 67.5 Z M 136.496094 67.5 "/>
<path style=" stroke:none;fill-rule:nonzero;fill:rgb(100%,74.117649%,29.019609%);fill-opacity:1;" d="M 83.773438 121.894531 L 81.257812 113.09375 C 81.085938 112.492188 81 111.867188 81 111.242188 L 81 51.75 C 81 50.507812 79.992188 49.5 78.75 49.5 L 69.75 49.5 L 69.75 51.75 C 69.75 54.234375 67.734375 56.25 65.25 56.25 C 62.765625 56.25 60.75 54.234375 60.75 51.75 L 60.75 49.5 L 11.25 49.5 C 10.007812 49.5 9 50.507812 9 51.75 L 9 111.238281 C 9 111.867188 8.914062 112.492188 8.742188 113.097656 L 6.300781 121.621094 C 5.742188 123.425781 5.929688 125.382812 6.820312 127.050781 C 8.011719 129.1875 10.269531 130.507812 12.714844 130.5 L 76.996094 130.5 C 78.890625 130.542969 80.71875 129.824219 82.078125 128.503906 C 83.804688 126.773438 84.453125 124.242188 83.773438 121.894531 Z M 29.25 110.25 C 29.25 112.734375 27.234375 114.75 24.75 114.75 C 22.265625 114.75 20.25 112.734375 20.25 110.25 L 20.25 69.75 C 20.25 67.265625 22.265625 65.25 24.75 65.25 C 27.234375 65.25 29.25 67.265625 29.25 69.75 Z M 49.5 110.25 C 49.5 112.734375 47.484375 114.75 45 114.75 C 42.515625 114.75 40.5 112.734375 40.5 110.25 L 40.5 69.75 C 40.5 67.265625 42.515625 65.25 45 65.25 C 47.484375 65.25 49.5 67.265625 49.5 69.75 Z M 69.75 110.25 C 69.75 112.734375 67.734375 114.75 65.25 114.75 C 62.765625 114.75 60.75 112.734375 60.75 110.25 L 60.75 69.75 C 60.75 67.265625 62.765625 65.25 65.25 65.25 C 67.734375 65.25 69.75 67.265625 69.75 69.75 Z M 69.75 110.25 "/>
<path style=" stroke:none;fill-rule:nonzero;fill:rgb(21.176471%,21.176471%,21.176471%);fill-opacity:1;" d="M 45 117 C 41.273438 117 38.25 113.976562 38.25 110.25 L 38.25 69.75 C 38.25 66.023438 41.273438 63 45 63 C 48.726562 63 51.75 66.023438 51.75 69.75 L 51.75 110.25 C 51.75 113.976562 48.726562 117 45 117 Z M 45 67.5 C 43.757812 67.5 42.75 68.507812 42.75 69.75 L 42.75 110.25 C 42.75 111.492188 43.757812 112.5 45 112.5 C 46.242188 112.5 47.25 111.492188 47.25 110.25 L 47.25 69.75 C 47.25 68.507812 46.242188 67.5 45 67.5 Z M 45 67.5 "/>
<path style=" stroke:none;fill-rule:nonzero;fill:rgb(21.176471%,21.176471%,21.176471%);fill-opacity:1;" d="M 65.25 117 C 61.523438 117 58.5 113.976562 58.5 110.25 L 58.5 69.75 C 58.5 66.023438 61.523438 63 65.25 63 C 68.976562 63 72 66.023438 72 69.75 L 72 110.25 C 72 113.976562 68.976562 117 65.25 117 Z M 65.25 67.5 C 64.007812 67.5 63 68.507812 63 69.75 L 63 110.25 C 63 111.492188 64.007812 112.5 65.25 112.5 C 66.492188 112.5 67.5 111.492188 67.5 110.25 L 67.5 69.75 C 67.5 68.507812 66.492188 67.5 65.25 67.5 Z M 65.25 67.5 "/>
<path style=" stroke:none;fill-rule:nonzero;fill:rgb(21.176471%,21.176471%,21.176471%);fill-opacity:1;" d="M 24.75 117 C 21.023438 117 18 113.976562 18 110.25 L 18 69.75 C 18 66.023438 21.023438 63 24.75 63 C 28.476562 63 31.5 66.023438 31.5 69.75 L 31.5 110.25 C 31.5 113.976562 28.476562 117 24.75 117 Z M 24.75 67.5 C 23.507812 67.5 22.5 68.507812 22.5 69.75 L 22.5 110.25 C 22.5 111.492188 23.507812 112.5 24.75 112.5 C 25.992188 112.5 27 111.492188 27 110.25 L 27 69.75 C 27 68.507812 25.992188 67.5 24.75 67.5 Z M 24.75 67.5 "/>
<path style=" stroke:none;fill-rule:nonzero;fill:rgb(21.176471%,21.176471%,21.176471%);fill-opacity:1;" d="M 16.734375 24.75 C 16.421875 24.75 16.117188 24.6875 15.832031 24.5625 C 14.695312 24.0625 14.175781 22.738281 14.671875 21.601562 C 16.816406 16.683594 21.671875 13.503906 27.035156 13.5 C 28.234375 13.5 29.433594 13.667969 30.589844 14 C 32.765625 8.949219 37.425781 5.402344 42.878906 4.648438 C 48.328125 3.894531 53.773438 6.042969 57.242188 10.316406 C 59.050781 9.449219 61.027344 9 63.035156 9 C 70.484375 9.007812 76.523438 15.046875 76.535156 22.5 C 76.535156 23.742188 75.527344 24.75 74.285156 24.75 C 73.042969 24.75 72.035156 23.742188 72.035156 22.5 C 72.042969 19.144531 70.175781 16.0625 67.195312 14.511719 C 64.21875 12.964844 60.625 13.207031 57.882812 15.140625 C 57.371094 15.5 56.734375 15.628906 56.125 15.5 C 55.515625 15.371094 54.984375 14.992188 54.660156 14.460938 C 52.328125 10.566406 47.882812 8.460938 43.390625 9.121094 C 38.902344 9.78125 35.25 13.082031 34.140625 17.484375 C 33.976562 18.140625 33.519531 18.691406 32.90625 18.972656 C 32.289062 19.257812 31.578125 19.25 30.96875 18.953125 C 28.773438 17.875 26.230469 17.742188 23.933594 18.582031 C 21.636719 19.421875 19.78125 21.160156 18.792969 23.398438 C 18.4375 24.21875 17.628906 24.75 16.734375 24.75 Z M 16.734375 24.75 "/>
<path style=" stroke:none;fill-rule:nonzero;fill:rgb(21.176471%,21.176471%,21.176471%);fill-opacity:1;" d="M 65.273438 58.5 C 64.902344 58.5 64.53125 58.46875 64.164062 58.410156 C 60.867188 57.773438 58.5 54.867188 58.539062 51.507812 L 58.539062 36 C 58.539062 34.757812 57.53125 33.75 56.289062 33.75 C 55.046875 33.75 54.039062 34.757812 54.039062 36 C 54.042969 38.472656 53.027344 40.839844 51.234375 42.542969 C 49.4375 44.246094 47.019531 45.136719 44.550781 45 C 39.667969 44.636719 35.925781 40.519531 36.027344 35.628906 C 36.027344 34.597656 35.191406 33.761719 34.160156 33.761719 L 15.785156 33.761719 C 14.542969 33.761719 13.535156 34.769531 13.535156 36.011719 L 13.5 42.761719 C 13.496094 44.003906 12.488281 45.007812 11.246094 45.003906 C 10 45.003906 8.996094 43.992188 9 42.75 L 9.035156 36 C 9.039062 32.277344 12.058594 29.261719 15.785156 29.261719 L 34.167969 29.261719 C 37.679688 29.265625 40.527344 32.113281 40.535156 35.628906 C 40.464844 38.113281 42.316406 40.234375 44.789062 40.5 C 46.023438 40.566406 47.234375 40.125 48.128906 39.273438 C 49.027344 38.421875 49.535156 37.238281 49.535156 36 C 49.535156 32.273438 52.554688 29.25 56.285156 29.25 C 60.011719 29.25 63.035156 32.273438 63.035156 36 L 63.035156 51.507812 C 62.992188 52.664062 63.765625 53.691406 64.886719 53.964844 C 65.542969 54.082031 66.21875 53.902344 66.726562 53.476562 C 67.238281 53.046875 67.535156 52.417969 67.535156 51.75 L 67.535156 35.617188 C 67.539062 32.101562 70.386719 29.253906 73.902344 29.25 L 74.285156 29.25 C 78.011719 29.25 81.035156 32.273438 81.035156 36 L 81 42.75 C 80.976562 43.988281 79.976562 44.980469 78.738281 45 C 77.5 44.992188 76.5 43.988281 76.5 42.75 L 76.535156 36 C 76.527344 34.761719 75.523438 33.761719 74.285156 33.761719 L 73.902344 33.761719 C 72.871094 33.761719 72.035156 34.597656 72.035156 35.628906 L 72.035156 51.75 C 72.035156 55.476562 69.011719 58.5 65.285156 58.5 Z M 65.273438 58.5 "/>
</g>
</svg>
