<?xml version="1.0" encoding="UTF-8"?>
<svg xmlns="http://www.w3.org/2000/svg" xmlns:xlink="http://www.w3.org/1999/xlink" width="512px" height="512px" viewBox="0 0 512 512" version="1.1">
<g id="surface1">
<path style=" stroke:none;fill-rule:nonzero;fill:rgb(21.176471%,21.176471%,21.176471%);fill-opacity:1;" d="M 312.121094 384 C 307.6875 384.007812 304.082031 380.433594 304.054688 376 C 304.042969 373.882812 304.875 371.851562 306.363281 370.347656 C 307.855469 368.847656 309.882812 368.003906 312 368 L 312.121094 368 C 335.949219 367.917969 356.140625 350.433594 359.632812 326.863281 C 360.257812 322.488281 364.3125 319.453125 368.6875 320.078125 C 373.0625 320.707031 376.097656 324.761719 375.472656 329.136719 C 370.816406 360.570312 343.894531 383.882812 312.121094 384 Z M 312.121094 384 "/>
<path style=" stroke:none;fill-rule:nonzero;fill:rgb(21.176471%,21.176471%,21.176471%);fill-opacity:1;" d="M 357.335938 190.9375 C 354.78125 190.9375 352.382812 189.722656 350.871094 187.664062 C 341.808594 175.332031 327.425781 168.035156 312.121094 168 C 307.6875 168.007812 304.082031 164.433594 304.054688 160 C 304.042969 157.882812 304.875 155.851562 306.363281 154.347656 C 307.855469 152.847656 309.882812 152.003906 312 152 C 332.441406 152.011719 351.660156 161.742188 363.777344 178.207031 C 365.550781 180.632812 365.820312 183.847656 364.46875 186.53125 C 363.121094 189.214844 360.378906 190.914062 357.375 190.9375 Z M 357.335938 190.9375 "/>
<path style=" stroke:none;fill-rule:nonzero;fill:rgb(21.176471%,21.176471%,21.176471%);fill-opacity:1;" d="M 312.121094 344 C 307.6875 344.007812 304.082031 340.433594 304.054688 336 C 304.042969 333.882812 304.875 331.851562 306.363281 330.347656 C 307.855469 328.847656 309.882812 328.003906 312 328 L 312.121094 328 C 314.761719 327.996094 317.230469 326.691406 318.71875 324.511719 C 321.230469 320.867188 326.21875 319.945312 329.863281 322.457031 C 333.507812 324.964844 334.429688 329.953125 331.921875 333.601562 C 327.4375 340.117188 320.03125 344.007812 312.121094 344 Z M 312.121094 344 "/>
<path style=" stroke:none;fill-rule:nonzero;fill:rgb(21.176471%,21.176471%,21.176471%);fill-opacity:1;" d="M 325.328125 214.960938 C 322.6875 214.964844 320.214844 213.664062 318.71875 211.488281 C 317.230469 209.308594 314.761719 208.003906 312.121094 208 C 307.6875 208.007812 304.082031 204.433594 304.054688 200 C 304.042969 197.882812 304.875 195.851562 306.363281 194.347656 C 307.855469 192.847656 309.882812 192.003906 312 192 C 319.953125 191.957031 327.410156 195.851562 331.921875 202.398438 C 334.410156 206.042969 333.480469 211.015625 329.839844 213.511719 C 328.519531 214.445312 326.945312 214.949219 325.328125 214.960938 Z M 325.328125 214.960938 "/>
<path style=" stroke:none;fill-rule:nonzero;fill:rgb(21.176471%,21.176471%,21.176471%);fill-opacity:1;" d="M 364.121094 256 L 324.121094 256 C 308.65625 256 296.121094 243.464844 296.121094 228 C 296.121094 212.535156 308.65625 200 324.121094 200 L 349.320312 200 C 353.738281 200 357.320312 203.582031 357.320312 208 C 357.320312 212.417969 353.738281 216 349.320312 216 L 324.121094 216 C 317.492188 216 312.121094 221.371094 312.121094 228 C 312.121094 234.628906 317.492188 240 324.121094 240 L 364.121094 240 C 370.746094 240 376.121094 234.628906 376.121094 228 C 376.121094 223.582031 379.703125 220 384.121094 220 C 388.539062 220 392.121094 223.582031 392.121094 228 C 392.121094 243.464844 379.582031 256 364.121094 256 Z M 364.121094 256 "/>
<path style=" stroke:none;fill-rule:nonzero;fill:rgb(21.176471%,21.176471%,21.176471%);fill-opacity:1;" d="M 364.121094 296 L 324.121094 296 C 308.65625 296 296.121094 283.464844 296.121094 268 C 296.121094 252.535156 308.65625 240 324.121094 240 L 364.121094 240 C 379.582031 240 392.121094 252.535156 392.121094 268 C 392.121094 283.464844 379.582031 296 364.121094 296 Z M 324.121094 256 C 317.492188 256 312.121094 261.371094 312.121094 268 C 312.121094 274.628906 317.492188 280 324.121094 280 L 364.121094 280 C 370.746094 280 376.121094 274.628906 376.121094 268 C 376.121094 261.371094 370.746094 256 364.121094 256 Z M 324.121094 256 "/>
<path style=" stroke:none;fill-rule:nonzero;fill:rgb(21.176471%,21.176471%,21.176471%);fill-opacity:1;" d="M 364.121094 336 L 324.121094 336 C 308.65625 336 296.121094 323.464844 296.121094 308 C 296.121094 292.535156 308.65625 280 324.121094 280 L 364.121094 280 C 379.582031 280 392.121094 292.535156 392.121094 308 C 392.121094 323.464844 379.582031 336 364.121094 336 Z M 324.121094 296 C 317.492188 296 312.121094 301.371094 312.121094 308 C 312.121094 314.628906 317.492188 320 324.121094 320 L 364.121094 320 C 370.746094 320 376.121094 314.628906 376.121094 308 C 376.121094 301.371094 370.746094 296 364.121094 296 Z M 324.121094 296 "/>
<path style=" stroke:none;fill-rule:nonzero;fill:rgb(21.176471%,21.176471%,21.176471%);fill-opacity:1;" d="M 437.320312 352 L 365.320312 352 C 360.902344 352 357.320312 348.417969 357.320312 344 C 357.320312 339.582031 360.902344 336 365.320312 336 L 437.320312 336 C 446.15625 336 453.320312 328.835938 453.320312 320 C 453.320312 315.582031 456.902344 312 461.320312 312 C 465.738281 312 469.320312 315.582031 469.320312 320 C 469.320312 337.671875 454.992188 352 437.320312 352 Z M 437.320312 352 "/>
<path style=" stroke:none;fill-rule:nonzero;fill:rgb(21.176471%,21.176471%,21.176471%);fill-opacity:1;" d="M 461.320312 235.742188 C 456.902344 235.742188 453.320312 232.164062 453.320312 227.742188 C 453.332031 222.804688 451.046875 218.136719 447.136719 215.121094 L 391.542969 171.921875 C 383.898438 167.90625 374.453125 170.683594 370.191406 178.191406 L 362.304688 192.113281 C 357.945312 199.800781 360.644531 209.566406 368.332031 213.925781 C 376.019531 218.28125 385.785156 215.582031 390.144531 207.894531 C 391.523438 205.347656 394.171875 203.742188 397.066406 203.699219 C 399.964844 203.660156 402.65625 205.1875 404.109375 207.695312 C 405.558594 210.207031 405.539062 213.300781 404.054688 215.792969 C 395.335938 231.164062 375.804688 236.558594 360.433594 227.839844 C 345.058594 219.121094 339.664062 199.589844 348.382812 184.214844 L 356.28125 170.304688 C 364.996094 154.933594 384.523438 149.535156 399.894531 158.246094 C 400.226562 158.441406 400.546875 158.65625 400.855469 158.886719 L 456.960938 202.488281 C 464.785156 208.53125 469.351562 217.867188 469.320312 227.753906 C 469.316406 232.167969 465.734375 235.742188 461.320312 235.742188 Z M 461.320312 235.742188 "/>
<path style=" stroke:none;fill-rule:nonzero;fill:rgb(21.176471%,21.176471%,21.176471%);fill-opacity:1;" d="M 485.320312 328 L 461.320312 328 C 456.902344 328 453.320312 324.417969 453.320312 320 C 453.320312 315.582031 456.902344 312 461.320312 312 L 485.320312 312 C 489.738281 312 493.320312 315.582031 493.320312 320 C 493.320312 324.417969 489.738281 328 485.320312 328 Z M 485.320312 328 "/>
<path style=" stroke:none;fill-rule:nonzero;fill:rgb(21.176471%,21.176471%,21.176471%);fill-opacity:1;" d="M 485.320312 240 L 461.320312 240 C 456.902344 240 453.320312 236.417969 453.320312 232 C 453.320312 227.582031 456.902344 224 461.320312 224 L 485.320312 224 C 489.738281 224 493.320312 227.582031 493.320312 232 C 493.320312 236.417969 489.738281 240 485.320312 240 Z M 485.320312 240 "/>
<path style=" stroke:none;fill-rule:nonzero;fill:rgb(100%,74.117649%,29.019609%);fill-opacity:1;" d="M 297.863281 433.40625 L 288.921875 402.113281 C 288.308594 399.96875 288 397.753906 288 395.527344 L 288 184 C 288 179.582031 284.417969 176 280 176 L 248 176 L 248 184 C 248 192.835938 240.835938 200 232 200 C 223.164062 200 216 192.835938 216 184 L 216 176 L 40 176 C 35.582031 176 32 179.582031 32 184 L 32 395.519531 C 32 397.75 31.6875 399.972656 31.078125 402.121094 L 22.398438 432.425781 C 20.410156 438.851562 21.082031 445.804688 24.257812 451.734375 C 28.484375 459.335938 36.511719 464.03125 45.207031 464 L 273.769531 464 C 280.496094 464.148438 287.003906 461.59375 291.832031 456.902344 C 297.96875 450.753906 300.277344 441.753906 297.863281 433.40625 Z M 104 392 C 104 400.835938 96.835938 408 88 408 C 79.164062 408 72 400.835938 72 392 L 72 248 C 72 239.164062 79.164062 232 88 232 C 96.835938 232 104 239.164062 104 248 Z M 176 392 C 176 400.835938 168.835938 408 160 408 C 151.164062 408 144 400.835938 144 392 L 144 248 C 144 239.164062 151.164062 232 160 232 C 168.835938 232 176 239.164062 176 248 Z M 248 392 C 248 400.835938 240.835938 408 232 408 C 223.164062 408 216 400.835938 216 392 L 216 248 C 216 239.164062 223.164062 232 232 232 C 240.835938 232 248 239.164062 248 248 Z M 248 392 "/>
<path style=" stroke:none;fill-rule:nonzero;fill:rgb(21.176471%,21.176471%,21.176471%);fill-opacity:1;" d="M 160 416 C 146.746094 416 136 405.253906 136 392 L 136 248 C 136 234.746094 146.746094 224 160 224 C 173.253906 224 184 234.746094 184 248 L 184 392 C 184 405.253906 173.253906 416 160 416 Z M 160 240 C 155.582031 240 152 243.582031 152 248 L 152 392 C 152 396.417969 155.582031 400 160 400 C 164.417969 400 168 396.417969 168 392 L 168 248 C 168 243.582031 164.417969 240 160 240 Z M 160 240 "/>
<path style=" stroke:none;fill-rule:nonzero;fill:rgb(21.176471%,21.176471%,21.176471%);fill-opacity:1;" d="M 232 416 C 218.746094 416 208 405.253906 208 392 L 208 248 C 208 234.746094 218.746094 224 232 224 C 245.253906 224 256 234.746094 256 248 L 256 392 C 256 405.253906 245.253906 416 232 416 Z M 232 240 C 227.582031 240 224 243.582031 224 248 L 224 392 C 224 396.417969 227.582031 400 232 400 C 236.417969 400 240 396.417969 240 392 L 240 248 C 240 243.582031 236.417969 240 232 240 Z M 232 240 "/>
<path style=" stroke:none;fill-rule:nonzero;fill:rgb(21.176471%,21.176471%,21.176471%);fill-opacity:1;" d="M 88 416 C 74.746094 416 64 405.253906 64 392 L 64 248 C 64 234.746094 74.746094 224 88 224 C 101.253906 224 112 234.746094 112 248 L 112 392 C 112 405.253906 101.253906 416 88 416 Z M 88 240 C 83.582031 240 80 243.582031 80 248 L 80 392 C 80 396.417969 83.582031 400 88 400 C 92.417969 400 96 396.417969 96 392 L 96 248 C 96 243.582031 92.417969 240 88 240 Z M 88 240 "/>
<path style=" stroke:none;fill-rule:nonzero;fill:rgb(21.176471%,21.176471%,21.176471%);fill-opacity:1;" d="M 59.496094 88 C 58.394531 88.003906 57.304688 87.773438 56.296875 87.328125 C 52.25 85.558594 50.402344 80.847656 52.167969 76.800781 C 59.796875 59.320312 77.050781 48.015625 96.121094 48 C 100.394531 48 104.648438 48.597656 108.761719 49.777344 C 116.507812 31.8125 133.074219 19.203125 152.453125 16.527344 C 171.832031 13.847656 191.199219 21.492188 203.527344 36.679688 C 209.953125 33.59375 216.992188 31.996094 224.121094 32 C 250.617188 32.03125 272.089844 53.503906 272.121094 80 C 272.121094 84.417969 268.539062 88 264.121094 88 C 259.703125 88 256.121094 84.417969 256.121094 80 C 256.144531 68.0625 249.511719 57.109375 238.921875 51.605469 C 228.332031 46.097656 215.554688 46.957031 205.800781 53.832031 C 203.984375 55.105469 201.722656 55.570312 199.550781 55.113281 C 197.382812 54.648438 195.503906 53.3125 194.351562 51.414062 C 186.0625 37.570312 170.25 30.078125 154.28125 32.429688 C 138.316406 34.78125 125.335938 46.519531 121.390625 62.167969 C 120.800781 64.503906 119.183594 66.453125 116.996094 67.464844 C 114.804688 68.476562 112.277344 68.445312 110.113281 67.382812 C 102.300781 63.554688 93.265625 63.078125 85.097656 66.0625 C 76.925781 69.050781 70.328125 75.238281 66.824219 83.199219 C 65.550781 86.113281 62.675781 88 59.496094 88 Z M 59.496094 88 "/>
<path style=" stroke:none;fill-rule:nonzero;fill:rgb(21.176471%,21.176471%,21.176471%);fill-opacity:1;" d="M 232.089844 208 C 230.765625 207.996094 229.449219 207.890625 228.144531 207.679688 C 216.417969 205.417969 207.992188 195.085938 208.144531 183.144531 L 208.144531 128 C 208.144531 123.582031 204.5625 120 200.144531 120 C 195.726562 120 192.144531 123.582031 192.144531 128 C 192.15625 136.796875 188.546875 145.214844 182.164062 151.265625 C 175.78125 157.320312 167.183594 160.480469 158.398438 160 C 141.046875 158.714844 127.738281 144.074219 128.105469 126.679688 C 128.097656 123.015625 125.128906 120.042969 121.464844 120.039062 L 56.121094 120.039062 C 51.703125 120.039062 48.121094 123.621094 48.121094 128.039062 L 48 152.039062 C 47.988281 156.457031 44.398438 160.03125 39.980469 160.019531 C 35.5625 160.007812 31.988281 156.417969 32 152 L 32.121094 128 C 32.140625 114.761719 42.878906 104.039062 56.121094 104.039062 L 121.480469 104.039062 C 133.976562 104.058594 144.101562 114.183594 144.121094 126.679688 C 143.875 135.515625 150.460938 143.054688 159.246094 144 C 163.640625 144.238281 167.9375 142.660156 171.128906 139.632812 C 174.320312 136.605469 176.125 132.398438 176.121094 128 C 176.121094 114.746094 186.863281 104 200.121094 104 C 213.375 104 224.121094 114.746094 224.121094 128 L 224.121094 183.144531 C 223.96875 187.25 226.722656 190.898438 230.710938 191.878906 C 233.042969 192.296875 235.441406 191.660156 237.257812 190.136719 C 239.074219 188.617188 240.121094 186.367188 240.121094 184 L 240.121094 126.640625 C 240.136719 114.144531 250.261719 104.019531 262.761719 104 L 264.121094 104 C 277.375 104 288.121094 114.746094 288.121094 128 L 288 152 C 287.914062 156.398438 284.359375 159.9375 279.960938 160 C 275.558594 159.976562 272 156.402344 272 152 L 272.121094 128 C 272.097656 123.597656 268.523438 120.039062 264.121094 120.039062 L 262.761719 120.039062 C 259.09375 120.042969 256.125 123.015625 256.121094 126.679688 L 256.121094 184 C 256.121094 197.253906 245.375 208 232.121094 208 Z M 232.089844 208 "/>
</g>
</svg>
