<?xml version="1.0" encoding="UTF-8"?>
<svg xmlns="http://www.w3.org/2000/svg" xmlns:xlink="http://www.w3.org/1999/xlink" width="152px" height="152px" viewBox="0 0 152 152" version="1.1">
<g id="surface1">
<path style=" stroke:none;fill-rule:nonzero;fill:rgb(21.176471%,21.176471%,21.176471%);fill-opacity:1;" d="M 92.660156 114 C 91.34375 114.003906 90.273438 112.941406 90.265625 111.625 C 90.261719 110.996094 90.507812 110.394531 90.953125 109.949219 C 91.394531 109.5 91.996094 109.25 92.625 109.25 L 92.660156 109.25 C 99.734375 109.226562 105.730469 104.035156 106.765625 97.039062 C 106.953125 95.738281 108.15625 94.835938 109.453125 95.023438 C 110.753906 95.210938 111.65625 96.414062 111.46875 97.710938 C 110.085938 107.042969 102.09375 113.964844 92.660156 114 Z M 92.660156 114 "/>
<path style=" stroke:none;fill-rule:nonzero;fill:rgb(21.176471%,21.176471%,21.176471%);fill-opacity:1;" d="M 106.085938 56.683594 C 105.324219 56.683594 104.613281 56.324219 104.164062 55.710938 C 101.472656 52.050781 97.203125 49.886719 92.660156 49.875 C 91.34375 49.878906 90.273438 48.816406 90.265625 47.5 C 90.261719 46.871094 90.507812 46.269531 90.953125 45.824219 C 91.394531 45.375 91.996094 45.125 92.625 45.125 C 98.695312 45.128906 104.398438 48.015625 107.996094 52.90625 C 108.523438 53.625 108.601562 54.578125 108.203125 55.375 C 107.800781 56.171875 106.988281 56.679688 106.097656 56.683594 Z M 106.085938 56.683594 "/>
<path style=" stroke:none;fill-rule:nonzero;fill:rgb(21.176471%,21.176471%,21.176471%);fill-opacity:1;" d="M 92.660156 102.125 C 91.34375 102.128906 90.273438 101.066406 90.265625 99.75 C 90.261719 99.121094 90.507812 98.519531 90.953125 98.074219 C 91.394531 97.625 91.996094 97.375 92.625 97.375 L 92.660156 97.375 C 93.445312 97.375 94.179688 96.988281 94.621094 96.339844 C 95.363281 95.257812 96.847656 94.984375 97.929688 95.730469 C 99.011719 96.472656 99.285156 97.957031 98.539062 99.039062 C 97.207031 100.972656 95.007812 102.128906 92.660156 102.125 Z M 92.660156 102.125 "/>
<path style=" stroke:none;fill-rule:nonzero;fill:rgb(21.176471%,21.176471%,21.176471%);fill-opacity:1;" d="M 96.582031 63.816406 C 95.796875 63.816406 95.0625 63.433594 94.621094 62.785156 C 94.179688 62.136719 93.445312 61.75 92.660156 61.75 C 91.34375 61.753906 90.273438 60.691406 90.265625 59.375 C 90.261719 58.746094 90.507812 58.144531 90.953125 57.699219 C 91.394531 57.25 91.996094 57 92.625 57 C 94.984375 56.988281 97.199219 58.144531 98.539062 60.085938 C 99.277344 61.167969 99 62.644531 97.921875 63.386719 C 97.527344 63.664062 97.0625 63.8125 96.582031 63.816406 Z M 96.582031 63.816406 "/>
<path style=" stroke:none;fill-rule:nonzero;fill:rgb(21.176471%,21.176471%,21.176471%);fill-opacity:1;" d="M 108.097656 76 L 96.222656 76 C 91.632812 76 87.910156 72.277344 87.910156 67.6875 C 87.910156 63.097656 91.632812 59.375 96.222656 59.375 L 103.703125 59.375 C 105.015625 59.375 106.078125 60.4375 106.078125 61.75 C 106.078125 63.0625 105.015625 64.125 103.703125 64.125 L 96.222656 64.125 C 94.253906 64.125 92.660156 65.71875 92.660156 67.6875 C 92.660156 69.65625 94.253906 71.25 96.222656 71.25 L 108.097656 71.25 C 110.066406 71.25 111.660156 69.65625 111.660156 67.6875 C 111.660156 66.375 112.722656 65.3125 114.035156 65.3125 C 115.347656 65.3125 116.410156 66.375 116.410156 67.6875 C 116.410156 72.277344 112.6875 76 108.097656 76 Z M 108.097656 76 "/>
<path style=" stroke:none;fill-rule:nonzero;fill:rgb(21.176471%,21.176471%,21.176471%);fill-opacity:1;" d="M 108.097656 87.875 L 96.222656 87.875 C 91.632812 87.875 87.910156 84.152344 87.910156 79.5625 C 87.910156 74.972656 91.632812 71.25 96.222656 71.25 L 108.097656 71.25 C 112.6875 71.25 116.410156 74.972656 116.410156 79.5625 C 116.410156 84.152344 112.6875 87.875 108.097656 87.875 Z M 96.222656 76 C 94.253906 76 92.660156 77.59375 92.660156 79.5625 C 92.660156 81.53125 94.253906 83.125 96.222656 83.125 L 108.097656 83.125 C 110.066406 83.125 111.660156 81.53125 111.660156 79.5625 C 111.660156 77.59375 110.066406 76 108.097656 76 Z M 96.222656 76 "/>
<path style=" stroke:none;fill-rule:nonzero;fill:rgb(21.176471%,21.176471%,21.176471%);fill-opacity:1;" d="M 108.097656 99.75 L 96.222656 99.75 C 91.632812 99.75 87.910156 96.027344 87.910156 91.4375 C 87.910156 86.847656 91.632812 83.125 96.222656 83.125 L 108.097656 83.125 C 112.6875 83.125 116.410156 86.847656 116.410156 91.4375 C 116.410156 96.027344 112.6875 99.75 108.097656 99.75 Z M 96.222656 87.875 C 94.253906 87.875 92.660156 89.46875 92.660156 91.4375 C 92.660156 93.40625 94.253906 95 96.222656 95 L 108.097656 95 C 110.066406 95 111.660156 93.40625 111.660156 91.4375 C 111.660156 89.46875 110.066406 87.875 108.097656 87.875 Z M 96.222656 87.875 "/>
<path style=" stroke:none;fill-rule:nonzero;fill:rgb(21.176471%,21.176471%,21.176471%);fill-opacity:1;" d="M 129.828125 104.5 L 108.453125 104.5 C 107.144531 104.5 106.078125 103.4375 106.078125 102.125 C 106.078125 100.8125 107.144531 99.75 108.453125 99.75 L 129.828125 99.75 C 132.453125 99.75 134.578125 97.625 134.578125 95 C 134.578125 93.6875 135.644531 92.625 136.953125 92.625 C 138.265625 92.625 139.328125 93.6875 139.328125 95 C 139.328125 100.246094 135.074219 104.5 129.828125 104.5 Z M 129.828125 104.5 "/>
<path style=" stroke:none;fill-rule:nonzero;fill:rgb(21.176471%,21.176471%,21.176471%);fill-opacity:1;" d="M 136.953125 69.988281 C 135.644531 69.988281 134.578125 68.921875 134.578125 67.613281 C 134.582031 66.144531 133.90625 64.757812 132.742188 63.863281 L 116.238281 51.039062 C 113.96875 49.847656 111.164062 50.671875 109.902344 52.902344 L 107.558594 57.035156 C 106.265625 59.316406 107.066406 62.214844 109.347656 63.507812 C 111.632812 64.800781 114.53125 64 115.824219 61.71875 C 116.234375 60.960938 117.019531 60.484375 117.878906 60.472656 C 118.738281 60.460938 119.539062 60.914062 119.96875 61.660156 C 120.398438 62.40625 120.394531 63.324219 119.953125 64.0625 C 117.367188 68.628906 111.566406 70.230469 107.003906 67.640625 C 102.4375 65.050781 100.839844 59.253906 103.425781 54.6875 L 105.769531 50.558594 C 108.359375 45.996094 114.15625 44.394531 118.71875 46.980469 C 118.816406 47.039062 118.914062 47.101562 119.003906 47.167969 L 135.660156 60.113281 C 137.984375 61.90625 139.339844 64.679688 139.328125 67.613281 C 139.328125 68.925781 138.265625 69.988281 136.953125 69.988281 Z M 136.953125 69.988281 "/>
<path style=" stroke:none;fill-rule:nonzero;fill:rgb(21.176471%,21.176471%,21.176471%);fill-opacity:1;" d="M 144.078125 97.375 L 136.953125 97.375 C 135.644531 97.375 134.578125 96.3125 134.578125 95 C 134.578125 93.6875 135.644531 92.625 136.953125 92.625 L 144.078125 92.625 C 145.390625 92.625 146.453125 93.6875 146.453125 95 C 146.453125 96.3125 145.390625 97.375 144.078125 97.375 Z M 144.078125 97.375 "/>
<path style=" stroke:none;fill-rule:nonzero;fill:rgb(21.176471%,21.176471%,21.176471%);fill-opacity:1;" d="M 144.078125 71.25 L 136.953125 71.25 C 135.644531 71.25 134.578125 70.1875 134.578125 68.875 C 134.578125 67.5625 135.644531 66.5 136.953125 66.5 L 144.078125 66.5 C 145.390625 66.5 146.453125 67.5625 146.453125 68.875 C 146.453125 70.1875 145.390625 71.25 144.078125 71.25 Z M 144.078125 71.25 "/>
<path style=" stroke:none;fill-rule:nonzero;fill:rgb(100%,74.117649%,29.019609%);fill-opacity:1;" d="M 88.429688 128.667969 L 85.773438 119.378906 C 85.59375 118.742188 85.5 118.082031 85.5 117.421875 L 85.5 54.625 C 85.5 53.3125 84.4375 52.25 83.125 52.25 L 73.625 52.25 L 73.625 54.625 C 73.625 57.25 71.5 59.375 68.875 59.375 C 66.25 59.375 64.125 57.25 64.125 54.625 L 64.125 52.25 L 11.875 52.25 C 10.5625 52.25 9.5 53.3125 9.5 54.625 L 9.5 117.421875 C 9.5 118.082031 9.40625 118.742188 9.226562 119.378906 L 6.648438 128.375 C 6.058594 130.285156 6.257812 132.347656 7.199219 134.109375 C 8.457031 136.363281 10.839844 137.757812 13.421875 137.75 L 81.273438 137.75 C 83.273438 137.792969 85.203125 137.035156 86.636719 135.644531 C 88.460938 133.816406 89.144531 131.144531 88.429688 128.667969 Z M 30.875 116.375 C 30.875 119 28.75 121.125 26.125 121.125 C 23.5 121.125 21.375 119 21.375 116.375 L 21.375 73.625 C 21.375 71 23.5 68.875 26.125 68.875 C 28.75 68.875 30.875 71 30.875 73.625 Z M 52.25 116.375 C 52.25 119 50.125 121.125 47.5 121.125 C 44.875 121.125 42.75 119 42.75 116.375 L 42.75 73.625 C 42.75 71 44.875 68.875 47.5 68.875 C 50.125 68.875 52.25 71 52.25 73.625 Z M 73.625 116.375 C 73.625 119 71.5 121.125 68.875 121.125 C 66.25 121.125 64.125 119 64.125 116.375 L 64.125 73.625 C 64.125 71 66.25 68.875 68.875 68.875 C 71.5 68.875 73.625 71 73.625 73.625 Z M 73.625 116.375 "/>
<path style=" stroke:none;fill-rule:nonzero;fill:rgb(21.176471%,21.176471%,21.176471%);fill-opacity:1;" d="M 47.5 123.5 C 43.566406 123.5 40.375 120.308594 40.375 116.375 L 40.375 73.625 C 40.375 69.691406 43.566406 66.5 47.5 66.5 C 51.433594 66.5 54.625 69.691406 54.625 73.625 L 54.625 116.375 C 54.625 120.308594 51.433594 123.5 47.5 123.5 Z M 47.5 71.25 C 46.1875 71.25 45.125 72.3125 45.125 73.625 L 45.125 116.375 C 45.125 117.6875 46.1875 118.75 47.5 118.75 C 48.8125 118.75 49.875 117.6875 49.875 116.375 L 49.875 73.625 C 49.875 72.3125 48.8125 71.25 47.5 71.25 Z M 47.5 71.25 "/>
<path style=" stroke:none;fill-rule:nonzero;fill:rgb(21.176471%,21.176471%,21.176471%);fill-opacity:1;" d="M 68.875 123.5 C 64.941406 123.5 61.75 120.308594 61.75 116.375 L 61.75 73.625 C 61.75 69.691406 64.941406 66.5 68.875 66.5 C 72.808594 66.5 76 69.691406 76 73.625 L 76 116.375 C 76 120.308594 72.808594 123.5 68.875 123.5 Z M 68.875 71.25 C 67.5625 71.25 66.5 72.3125 66.5 73.625 L 66.5 116.375 C 66.5 117.6875 67.5625 118.75 68.875 118.75 C 70.1875 118.75 71.25 117.6875 71.25 116.375 L 71.25 73.625 C 71.25 72.3125 70.1875 71.25 68.875 71.25 Z M 68.875 71.25 "/>
<path style=" stroke:none;fill-rule:nonzero;fill:rgb(21.176471%,21.176471%,21.176471%);fill-opacity:1;" d="M 26.125 123.5 C 22.191406 123.5 19 120.308594 19 116.375 L 19 73.625 C 19 69.691406 22.191406 66.5 26.125 66.5 C 30.058594 66.5 33.25 69.691406 33.25 73.625 L 33.25 116.375 C 33.25 120.308594 30.058594 123.5 26.125 123.5 Z M 26.125 71.25 C 24.8125 71.25 23.75 72.3125 23.75 73.625 L 23.75 116.375 C 23.75 117.6875 24.8125 118.75 26.125 118.75 C 27.4375 118.75 28.5 117.6875 28.5 116.375 L 28.5 73.625 C 28.5 72.3125 27.4375 71.25 26.125 71.25 Z M 26.125 71.25 "/>
<path style=" stroke:none;fill-rule:nonzero;fill:rgb(21.176471%,21.176471%,21.176471%);fill-opacity:1;" d="M 17.664062 26.125 C 17.335938 26.125 17.011719 26.058594 16.710938 25.925781 C 15.511719 25.398438 14.964844 24 15.488281 22.800781 C 17.753906 17.609375 22.875 14.253906 28.535156 14.25 C 29.804688 14.25 31.066406 14.429688 32.289062 14.777344 C 34.585938 9.445312 39.507812 5.699219 45.261719 4.90625 C 51.011719 4.109375 56.761719 6.378906 60.421875 10.890625 C 62.328125 9.972656 64.417969 9.5 66.535156 9.5 C 74.402344 9.507812 80.777344 15.882812 80.785156 23.75 C 80.785156 25.0625 79.722656 26.125 78.410156 26.125 C 77.097656 26.125 76.035156 25.0625 76.035156 23.75 C 76.042969 20.207031 74.074219 16.953125 70.929688 15.320312 C 67.785156 13.683594 63.992188 13.941406 61.097656 15.980469 C 60.558594 16.359375 59.886719 16.496094 59.242188 16.363281 C 58.597656 16.222656 58.039062 15.828125 57.699219 15.265625 C 55.238281 11.152344 50.542969 8.929688 45.800781 9.628906 C 41.0625 10.324219 37.210938 13.808594 36.039062 18.457031 C 35.863281 19.148438 35.382812 19.726562 34.734375 20.027344 C 34.082031 20.328125 33.332031 20.320312 32.691406 20.003906 C 30.371094 18.867188 27.6875 18.726562 25.261719 19.613281 C 22.835938 20.5 20.878906 22.335938 19.839844 24.699219 C 19.460938 25.566406 18.605469 26.125 17.664062 26.125 Z M 17.664062 26.125 "/>
<path style=" stroke:none;fill-rule:nonzero;fill:rgb(21.176471%,21.176471%,21.176471%);fill-opacity:1;" d="M 68.902344 61.75 C 68.507812 61.75 68.117188 61.71875 67.730469 61.65625 C 64.25 60.984375 61.75 57.914062 61.792969 54.371094 L 61.792969 38 C 61.792969 36.6875 60.730469 35.625 59.417969 35.625 C 58.105469 35.625 57.042969 36.6875 57.042969 38 C 57.046875 40.613281 55.976562 43.109375 54.078125 44.90625 C 52.183594 46.703125 49.632812 47.640625 47.023438 47.5 C 41.875 47.117188 37.921875 42.773438 38.03125 37.609375 C 38.03125 36.519531 37.148438 35.636719 36.058594 35.636719 L 16.660156 35.636719 C 15.347656 35.636719 14.285156 36.699219 14.285156 38.011719 L 14.25 45.136719 C 14.246094 46.449219 13.179688 47.507812 11.867188 47.507812 C 10.558594 47.503906 9.496094 46.4375 9.5 45.125 L 9.535156 38 C 9.542969 34.070312 12.730469 30.886719 16.660156 30.886719 L 36.0625 30.886719 C 39.773438 30.890625 42.78125 33.898438 42.785156 37.609375 C 42.710938 40.230469 44.667969 42.46875 47.277344 42.75 C 48.582031 42.820312 49.855469 42.351562 50.804688 41.453125 C 51.75 40.554688 52.289062 39.304688 52.285156 38 C 52.285156 34.066406 55.476562 30.875 59.410156 30.875 C 63.34375 30.875 66.535156 34.066406 66.535156 38 L 66.535156 54.371094 C 66.492188 55.589844 67.308594 56.671875 68.492188 56.964844 C 69.183594 57.089844 69.894531 56.898438 70.4375 56.445312 C 70.976562 55.996094 71.285156 55.328125 71.285156 54.625 L 71.285156 37.597656 C 71.289062 33.886719 74.296875 30.878906 78.007812 30.875 L 78.410156 30.875 C 82.34375 30.875 85.535156 34.066406 85.535156 38 L 85.5 45.125 C 85.472656 46.429688 84.417969 47.480469 83.113281 47.5 C 81.804688 47.492188 80.75 46.433594 80.75 45.125 L 80.785156 38 C 80.777344 36.691406 79.71875 35.636719 78.410156 35.636719 L 78.007812 35.636719 C 76.917969 35.636719 76.035156 36.519531 76.035156 37.609375 L 76.035156 54.625 C 76.035156 58.558594 72.84375 61.75 68.910156 61.75 Z M 68.902344 61.75 "/>
</g>
</svg>
